<svg xmlns="http://www.w3.org/2000/svg" version="1.0" viewBox="0 0 512 512">
  <path d="M240.4 2.4A45.8 45.8 0 0 0 216.5 22c-6.6 10.9-6.5 9.1-6.5 98.2 0 57.5-.3 81.4-1.1 83.8-2.2 6.2.5 6-88.5 6-89.4 0-87.4-.1-98.5 6.6A44.4 44.4 0 0 0 0 256c0 16.9 7.8 30.9 21.9 39.4 11.1 6.7 9.1 6.6 98.3 6.6 57.5 0 81.4.3 83.8 1.1 6.2 2.2 6-.5 6 88.5 0 89.4-.1 87.4 6.6 98.5A44.4 44.4 0 0 0 256 512c16.9 0 30.9-7.8 39.4-21.9 6.7-11.1 6.6-9.1 6.6-98.5 0-89-.2-86.3 6-88.5 2.4-.8 26.3-1.1 83.8-1.1 89.2 0 87.2.1 98.3-6.6A44.4 44.4 0 0 0 512 256c0-16.9-7.8-30.9-21.9-39.4-11.1-6.7-9.1-6.6-98.3-6.6-57.5 0-81.4-.3-83.8-1.1-6.2-2.2-6 .5-6-88.5 0-89.4.1-87.4-6.6-98.5a46 46 0 0 0-25-19.9 51.1 51.1 0 0 0-30 .4z"/>
</svg>