<svg xmlns="http://www.w3.org/2000/svg" version="1.0" viewBox="0 0 512 512">
  <path d="M134.5 1.3c-8.9 3-16.4 9.6-21.1 18.7-2.6 5-2.9 6.5-2.9 15.5 0 17.5-8.7 7.5 104.4 120.7l99.6 99.8-99.6 99.7C101.8 469 110.5 459 110.5 476.5c0 9.1.3 10.5 2.9 15.8a40 40 0 0 0 17.1 16.7c4.3 2.2 6.4 2.5 15.5 2.5 9.6 0 11-.2 16-2.8 4.5-2.4 26.8-24.2 119.2-116.5 94.5-94.4 114.3-114.7 117-119.7 3.1-5.7 3.3-6.5 3.3-16.5s-.2-10.8-3.3-16.5c-2.7-5.1-22.4-25.2-117.5-120.1C189 27.9 165.5 4.9 161.5 3a49.6 49.6 0 0 0-27-1.7z"/>
</svg>