<svg xmlns="http://www.w3.org/2000/svg" width="1706.667" height="882.667" version="1.0" viewBox="0 0 1280 662"><path d="M811.5 3.7c-4.4 2.3-9.3 7.2-12.3 12.3-2.3 3.9-2.7 5.6-2.7 13 0 7.5.4 9.3 3.1 15 1.7 3.6 5.7 10.1 8.9 14.5 24.2 33.2 25.6 35.4 30 50 4.7 15.7 14.4 40.6 19.7 50.6 2.7 5.3 7.9 13.5 11.4 18.1l6.3 8.5-2.5 7.9c-1.3 4.3-4.1 14.9-6.1 23.4-3.2 13.7-3.7 17.4-4.1 32-.7 28.3 3.7 49.7 13.9 67.5 5.4 9.6 15 20.2 20.4 22.6 8 3.7 18.3 1.5 23.8-5 3.3-3.9 5-9.7 7.7-26.1 1.2-6.8 2.3-12.6 2.5-12.8.2-.2 2.4 3.6 5 8.5 2.6 4.8 6.4 11.7 8.3 15.3 2.6 4.7 7.5 10.4 18.1 21.1 15.8 15.7 40.7 37.8 44 39.1 4 1.5 2.1-1.7-7.3-11.9-14.7-16-23.8-28.9-38-53.6-8-13.9-18.9-36.1-23-46.7-5.8-14.8-6.4-16-8.5-16-1.3 0-3.9 2.7-8 8.2-10.6 14.6-12.7 20.6-16.2 46.7-1 7.9-1.9 14.5-1.9 14.7 0 .3-1.3-.2-3-1.1-8.1-4.2-17.4-26.6-20.1-49-1.4-11.2-.5-36.6 1.6-45.5.9-3.6 3.6-12.8 6.2-20.5 5.8-17.3 6.2-23.2 2-29.1-1.5-2.1-5-6.6-7.8-9.9-7-8.4-13.4-22.1-22.9-49.5-10.8-31.1-13.5-36.2-31.8-60.4-13.5-17.8-17.1-27.6-11.9-32.4 3.2-3 8.8-2.9 17.9.4 10.7 3.8 26.3 11.8 34.3 17.5 15.3 10.9 14.8 10.6 24.8 11.4 26.4 1.9 33.4 3.5 50.2 11.4 42.2 19.9 80.6 54 108.9 96.6 9.6 14.5 15.2 25 22.4 42 14.2 33.6 40 87.2 45.6 94.7 4.7 6.2 9.8 9 27.3 14.9 8.2 2.8 18.9 6.9 23.8 9.3 9.4 4.4 52.2 32.5 56.3 36.9l2.4 2.5-5.4.5c-2.9.3-11.6 1-19.3 1.6-18.9 1.4-39.7 7.3-46.8 13.2l-3.2 2.7 2.9 5.8c9.7 20.1 25.3 33.3 61.4 52.3 19.4 10.1 27.8 15.4 40.1 25.3 4.6 3.8 9 6.8 9.7 6.8 4.8 0-2-10.6-18-28.1-13.2-14.5-21.7-21.7-39.8-33.6-13.1-8.6-24.8-17.7-24.8-19.2 0-1.2 18-5.5 36.5-8.6 24.6-4.2 31.5-6.4 31.5-9.9 0-7.2-26.8-32.4-56.2-52.9-13.6-9.5-19.3-12.6-38.8-21.2-9.6-4.2-18.4-8.5-19.4-9.4-2.7-2.3-29.8-57.8-40.6-83.1-10.8-25.3-16.6-36.6-26.6-51.5-26-39-63-73.5-106.9-99.9-17.5-10.6-37-16.5-61.4-18.7l-12.6-1.1-8.5-6.4c-10.7-8.1-33.5-19.7-42.9-21.8-9.2-2.1-25.5-2.1-29.6.1z"/><path d="M894.7 81.7c-1.6.2-3.1 1.1-3.4 1.8-.3.8 1.8 4.5 4.6 8.2 2.8 3.8 6.7 9.9 8.7 13.6 2 3.8 4.2 7.1 5 7.4 1.8.6 5.1-2.1 7-5.9 2.2-4.2 1.8-11.9-.8-15.8-5.2-7.6-12.4-10.8-21.1-9.3zM40 404.7c-12 1.4-24.3 6-30.5 11.4-7.4 6.6-7 .2-7.3 99.6L1.9 605H46l.1-5.3c.1-2.8.5-38.4.8-79l.6-73.9 8.2 18.4c19.9 44.7 41.2 91.8 49.5 109.5 9.7 20.6 12.7 24.6 21.8 29.3 8.6 4.4 33.6 4.6 42.7.4 2.1-1 6.3-4.3 9.3-7.4 6.4-6.3 5.2-3.9 46.6-96.1l24.9-55.7.3 79.9.2 79.9h44.1l-.3-89.3-.3-89.2-2.2-4.1c-6-11.2-21.5-17.4-43.6-17.4-10.2 0-10.7.1-18.5 4-5.3 2.7-9.4 5.6-11.7 8.3-4.9 5.7-13.5 23.5-38.4 79.2-11.5 25.9-23.5 52.7-26.7 59.7l-5.7 12.8-6.8-15.3c-3.7-8.3-16.9-38.8-29.4-67.7-12.5-28.9-24.1-55.1-25.7-58.2C81.9 420.4 74 412.5 67 409c-5-2.5-17.2-5.2-21.7-4.8-1 0-3.4.3-5.3.5zM602 410.6c-15.4 3.4-31.3 14.1-37.5 25.5-2.3 4.3-2.9 7-3.7 17.3-1.3 16.6-.3 32.7 2.4 38 3.5 6.8 11.9 14.1 22.1 19.1 15.6 7.7 20.3 8.4 59.2 9.6 37.4 1 45.8 1.8 51.2 4.6 7.1 3.7 7.8 5.6 8.1 22.6l.3 15.2-3.2 3.9c-1.8 2.1-4.9 4.5-6.8 5.4-5.2 2.1-30.6 3.1-86.3 3.1l-47.8.1v30h67.4c73.8 0 73.9 0 89.5-6 14.5-5.6 27-16.5 30.7-26.8 1.6-4.6 1.9-42.9.4-48.4-2.5-8.8-13.7-18.6-28.5-24.7-12.5-5.3-18.7-6-58.5-7.1-20.1-.5-38.6-1.2-41.1-1.5-6.2-.9-11.5-5.2-13-10.8-.6-2.3-1.2-9.8-1.2-16.7 0-21.1 1.2-22.1 28.3-23.1 10.2-.4 40.7-.8 67.8-.8l49.2-.1v-30l-71.2.1c-57.3.1-72.6.4-77.8 1.5zM825.1 410c-22.2 3-40.3 13.6-47.1 27.4-4.8 9.7-5.3 17.9-4.7 77.6.5 51.4.5 52.6 2.8 58.5 3.2 8.7 13.5 18.7 24.9 24.3 14.3 7 17.1 7.4 56 7.9 19 .2 40.4 0 47.5-.4l13-.9 16.2 14.8 16.1 14.8h24.6c13.4 0 24.7-.4 25-.8.6-1.1-18.8-19.7-37.7-36.2-.5-.4 1.2-1.9 3.6-3.3 2.4-1.4 6.9-5.3 10-8.7 9-9.7 8.7-6.5 8.7-79v-62.5l-3.7-6.4c-7.3-12.3-19.2-20.4-37.3-25.2-8.3-2.2-10-2.3-60-2.5-28.3-.1-54.4.2-57.9.6zM930 442.2c5.4 2.5 9.1 5.8 10.6 9.4 1.1 2.7 1.4 13.6 1.4 56.6v53.2l-2.2 3.2c-1.3 1.8-3.3 3.9-4.5 4.5-2.5 1.3-4.7-.3-22.8-16.9l-9-8.2-24.4.2c-16.7.2-24.6.6-24.8 1.4-.2.6 6.7 7.6 15.3 15.5l15.8 14.4-11.3.3c-6.2.1-16.8-.1-23.5-.6-10.7-.8-13.1-1.3-17.7-3.8-6.5-3.5-9.6-7.8-10.4-14.7-.3-2.9-.5-27.3-.3-54.4.3-47.8.4-49.2 2.4-51.9 2.9-4 6.5-6.4 12.5-8.5 5-1.7 8.5-1.9 47.4-1.6 36.6.2 42.5.4 45.5 1.9zM1009.7 409.7c-.4.3-.7 35.9-.7 79V567l3.5 7c8.5 16.9 26.4 27 53 30 5.1.5 35.4 1 70.3 1h61.2v-30h-45.2c-24.9-.1-53.9-.5-64.4-.9-17.4-.7-19.6-1-24.7-3.4-3-1.4-6.1-3.6-6.8-4.8-1.8-3.4-2.8-39.8-2.8-103.2l-.1-53.7h-21.3c-11.8 0-21.7.3-22 .7zM328.2 519.2l.3 52.3 2.7 4.7c5.9 9.9 21.2 20.1 36.3 24.1 11.2 3 23.9 3.7 70.8 3.7H485v8.1c0 10.8-1.5 13.8-8.8 17.7l-5.7 3-70.7.7-70.8.7v10.2c0 5.5-.3 11.8-.6 13.9l-.7 3.7h78.6c76.9 0 78.6 0 85.3-2.1 16.6-5.1 30.3-15.1 35.1-25.6 2.1-4.6 2.7-7.8 3.4-19.1 1-16.9 1.1-68.5.2-113.5l-.6-33.7h-43.4l-.6 32.2c-.4 17.8-.7 42.2-.7 54.2v21.9l-49.5-.6c-45.8-.5-49.7-.7-53.7-2.5-7-3.1-8-4.9-8.9-16-.4-5.3-.8-27.5-.9-49.3v-39.6l-12.7-.6c-7.1-.4-17-.7-22.1-.7h-9.3l.3 52.2z"/></svg>