<svg xmlns="http://www.w3.org/2000/svg" width="1050.667" height="964" version="1.0" viewBox="0 0 788 723"><path d="M455 34.6c-6.3.9-11.9 2-12.3 2.4-.5.4 2.4 2.5 6.4 4.5C477.6 56 505 82.7 523.5 114c6.5 11.1 14.1 28.2 15.9 35.8 1.7 7.4 1.2 21.6-1.5 40.7-2.5 17.9-2.6 34-.3 52 .9 7.2 1.6 19.7 1.6 28 0 17.5-1.8 25.9-8.1 39.2-3.5 7.3-3.8 8.3-2.5 10 1.4 1.7 1.5 1.7 3.2-.6 4.1-5.7 17-29 24.7-44.6 19.7-40.4 32.1-75.8 40-115 5.6-27.9 6.5-47.4 2.9-64.2-1.8-8.5-4.5-12.8-14.5-23-18.5-19.1-41.7-31.2-69.2-36.4-15.1-2.8-44.5-3.4-60.7-1.3z"/><path d="M349 41.1c-17.4 3.7-31.8 11.1-43.8 22.4-17.5 16.4-30.3 42.2-36.7 73.6-2.7 13.5-4.3 27.9-3.1 27.9.5 0 4-1.5 7.9-3.4 9.5-4.5 22.3-8.3 32.4-9.7 20.7-2.8 38.5 5.5 46.3 21.5 8 16.4 12.9 62.4 9.1 86.1-1.6 9.9-7.4 27.7-13.3 41-4.8 10.6-11.8 30.3-11.8 32.9 0 1.2 1.1 1.6 4.8 1.6 11.2 0 23.4 10.4 27.3 23.2 2.1 6.7 2.1 8.4 1.5 29.2-.7 23.7.7 75.4 2.4 92.6.6 5.8 1.7 13.6 2.5 17.5 3.3 16.1 14.1 30.9 26 35.5 13.9 5.4 40.2 1.4 59-9.1 10.9-6.1 17.8-17.1 22-35.1 3.2-14 13.4-93.7 15.4-120.8.7-9.8 1.4-13 3.5-17.5 3.1-6.2 8.8-11.6 15.2-14.2 2.4-1 4.2-2.3 4-2.8-.2-.6-3.2-4.8-6.6-9.4-6.8-9-35.2-61.6-42.5-78.6-10.5-24.6-13.9-38.9-13.3-55.3.4-12.7 2.9-19.2 10.2-27C477 153 488.8 149 509.8 149h13.3l-.7-2.3c-2-6.3-8.7-20.2-13.7-28.5-25.2-41.4-59.9-66.9-103.5-76.3-14.8-3.2-43.4-3.6-56.2-.8z"/><path d="M194.8 41.5c-11 1.8-25.4 6.6-33.8 11.2-9.9 5.5-21.5 17.7-27.2 28.8-9.6 18.6-13.3 38.1-12.5 67.4.6 25.4 4.1 45.6 15.8 92.6 16.4 65.7 36.9 116.2 56 137.9 8.9 10.2 20.1 12.9 29.4 7.1 2.9-1.8 9-7.8 14.8-14.5 5.5-6.3 15.9-18.1 23.1-26.3 12.4-13.9 15.1-17.7 12.7-17.7-2.1 0-13.2-14.6-17.6-23.1-8.5-16.4-10.4-29.4-8-53.2 1.2-11.9 1.5-25 1.4-53-.2-30.9.1-39.1 1.5-48.2 6-38.5 17.9-67.3 37.2-90.1 3-3.5 5.4-6.6 5.4-6.8 0-1.3-26.2-7.8-43-10.6-16.4-2.8-43.1-3.5-55.2-1.5zM494.2 165.5c-8.5 1.9-14.7 5-17.3 8.7-10.7 14.9-3.6 47.1 20.1 91.3 3.8 7.1 9.8 18.5 13.2 25.2 3.5 6.8 6.6 12.3 6.9 12.3 1.1 0 3.7-7.3 5.3-15.3 2.2-10.4 2.1-19.3-.6-45.8-2.4-24.6-2.2-31.5 1.8-62.1 1-7.5 1.5-14 1.2-14.3-1.4-1.5-24.3-1.5-30.6 0zm14.4 9c2 2.8 1.8 3.3-2.9 8.1-6.8 6.8-11.9 7-18.5.9-4.4-4.1-3.9-5.8 2.9-9.3 5.6-3 16.3-2.8 18.5.3z"/><path d="M297.3 168.9c-8.9 2.5-20.3 7.2-27.4 11.4l-5.4 3.2-.1 30c0 18.9-.5 32.8-1.3 37.5-.7 4.1-1.2 11.6-1.2 16.7.1 32.1 20.2 57.8 49.3 62.9 4.5.8 8.3 1.2 8.5 1 .2-.2 2.2-5.7 4.5-12.2 2.2-6.5 5.8-15.9 8-20.9 5.8-13.3 9.7-23.9 12.1-33.5 3.1-12.4 3.1-42.9-.1-61.5-4-23.3-6.8-29.7-15.1-33.7-6.5-3.2-21.7-3.6-31.8-.9zm28 8.7c6 2 9 5.6 7.5 8.9-2 4.4-6.8 7-13 7-5.3 0-6-.3-9.8-4-2.2-2.2-4.3-5-4.7-6.3-1.5-6.2 9.3-9.3 20-5.6zM522 349.8c-2.7 1.1-5.3 3-6.7 5-2.1 3.2-3.9 12-3.1 15.8 1.2 6.6 41.2 5.3 61.1-1.9 7.1-2.6 19-9.3 23.4-13.2 3.5-3 2.8-3.1-10.5-.9-5.4 1-15.6 1.7-23.2 1.7-14.7.1-21.8-1.3-29.6-5.9-4.8-2.8-5.5-2.8-11.4-.6zM336.7 351c-.9.6-5.2 5.3-9.3 10.3-13.5 16.3-17.4 18.7-40.1 24.3-8.4 2-15.3 4.1-15.3 4.6 0 1.5 8 4.6 15 5.8 9.1 1.7 26.3 1.4 33.3-.4 12.1-3.3 23.6-11.1 30.9-21 2.1-2.9 2.8-5 2.8-8.3 0-5.1-3-11.6-6.4-13.8-3.1-2.1-8.7-2.8-10.9-1.5zM620 578.1c-10 .9-21.2 4.7-28.8 9.6-29 19.2-32.8 73.8-6.9 99.8 10.8 10.7 22.4 15.3 41.2 16.2 14.4.7 26.9-.8 34-4.1l5.2-2.3 8.9 7.3c4.8 4.1 9.3 7.4 9.9 7.4 1.6 0 7.5-6.3 7.5-8 0-1.3-4.6-5.5-14.2-13.1-2-1.6-2-1.7 2.6-7.3 5.6-6.9 7.7-10.9 10.7-20.6 2.1-6.5 2.4-9.5 2.3-22 0-10.6-.5-16.2-1.8-21-2.1-7.9-7.5-18.4-12.2-23.8-11.9-14-32.9-20.5-58.4-18.1zm22.9 10.4c8.8 2.1 15.5 5.9 22.1 12.6 10.4 10.5 15.2 23.1 15.3 39.9.1 19.2-6.6 34-19.4 43.5-11.3 8.3-25.7 11.5-40.3 9-9.7-1.7-16.5-4.9-23.8-11.5-11.4-10.2-16.9-23.4-16.9-41.1 0-12.1 1.1-17.7 5.3-26.6 9.6-20.6 33.7-31.4 57.7-25.8z"/><path d="M494.1 579.6c-8 1.7-16.4 5.7-19 9-5.6 7.2-7.7 21.8-4.7 33 3.4 12.7 9.1 15.9 41.1 22.5 24.7 5.1 30.2 7 34.7 11.7 10.5 11 6.3 28.7-8.4 35.3-4.8 2.1-6.8 2.3-19.8 2.4-13 0-15.1-.2-20.4-2.4-10.7-4.3-17.7-13.1-19.2-24.4l-.7-4.7h-6.3c-7.3 0-7-.5-5.3 10 3.4 21.6 16.5 30.5 46.4 31.7 28.1 1.1 43.1-4.8 49.9-19.6 1.6-3.7 2.1-6.6 2.1-14.6 0-11-1.3-15.9-5.2-20.6-5-5.9-17.2-10.3-42.3-15.4-19.8-4-25.5-6-29.9-10.4-6-6-7.4-15.5-3.5-23.2 2.1-4.2 9-9.5 14.2-11 2.9-.9 9.4-1.4 16.7-1.4 12.9.1 17.8 1.4 25.1 7 4 3.1 8.4 11.7 8.4 16.7v3.8h13v-4.8c0-6.5-1.6-11.7-5.6-17.9-2.8-4.4-4.4-5.7-10.6-8.6-4-1.9-9.7-4-12.6-4.6-7.3-1.5-30.3-1.2-38.1.5zM706.3 580.7l-5.3.4V701h87v-10l-37.2-.2-37.3-.3-.3-55.3c-.1-30.3-.6-55.1-1-55-.4.1-3.1.3-5.9.5zM.5 596.2c-.3.7-.4 23.3-.3 50.3l.3 49h10l.3-21.2.2-21.2 22.8-.3c21.4-.3 23-.4 27.9-2.7 13.7-6.2 19.4-20.9 14.3-37.3-1.4-4.5-3-7.4-5.7-10-7.7-7.3-7.5-7.3-40.1-7.6-23.3-.2-29.3 0-29.7 1zm51.6 7.8c5.8 1.1 9.1 3.1 12.3 7.4 1.8 2.3 2.1 4.2 2.1 12.6 0 11.6-1.2 14-9.1 18-4.7 2.4-5.9 2.5-25.6 2.9l-20.8.3V603h17.9c9.8 0 20.3.5 23.2 1zM239 619v11h-5.5c-5.4 0-5.5 0-5.5 3s.1 3 5.5 3h5.5v25.5c0 28.6.4 30.5 6.5 33.1 1.9.8 6.4 1.4 10 1.4h6.5v-3.3c0-3.3-.1-3.4-4.4-3.5-6.5 0-8.3-.9-9.5-4.4-.7-1.9-1.1-12.1-1.1-26v-23l7.5.4 7.5.3V630h-15v-22h-8v11zM103 629.1c-5.2 1.6-13.5 7.5-16.2 11.7-4.5 6.7-5.3 10-5.3 22.2 0 10.6.2 12 2.8 17.2 6.4 13 20.4 19.3 37.7 16.8 8.3-1.2 14-3.8 19.3-8.9 5.1-4.7 7.3-9.3 8.8-17.6 3.1-17.7-3.9-33.6-17.3-39.6-4.3-1.8-7.4-2.3-15.8-2.6-5.8-.1-12.1.2-14 .8zm23.3 7c4.7 1.2 10.2 6 13 11.3 1.9 3.5 2.2 5.7 2.2 15.1 0 9.4-.3 11.6-2.2 15.1-5.8 10.9-19.5 16-32.7 12-6.7-2-11-5.8-14.2-12.2-2.3-4.7-2.8-7-2.8-13.8-.1-10.2 2.1-17 7.2-21.8 4.6-4.5 7.2-5.8 13.1-6.8 4.9-.8 10.1-.4 16.4 1.1zM174.5 629.5c-2.7.8-5.3 1.4-5.6 1.5-.3 0-1.9 1.4-3.7 3.1-4 3.9-5.9 11.6-4.3 17.5 2.2 8.3 6.8 10.5 31.5 14.4 7.2 1.2 13.8 2.6 14.7 3.1 3.1 1.6 4.9 5.2 4.9 9.7 0 8.3-6.8 12.2-21.6 12.2-13.7 0-21.4-4.2-23-12.5-.6-3.4-.8-3.5-5.1-3.5h-4.5l.7 3.7c2.5 13.2 11.6 18.4 32.2 18.4 21.7 0 31.1-6.7 30.1-21.3-.3-4.7-1-6.4-3.3-8.8-4.4-4.6-8.4-6-26.6-9-11.5-1.9-17.6-3.3-18.9-4.5-4.1-3.8-4.2-11.2-.1-14.9 4.7-4.3 18.7-6 27.4-3.4 5.1 1.5 9.4 5.9 10.3 10.3.6 3.4.8 3.5 5.1 3.5h4.5l-.7-3.3c-2.7-12.8-11-17.8-29.4-17.6-5.3 0-11.8.7-14.6 1.4zM283.1 629.9c-6.5 2.3-9.7 4.6-13.8 10-3.8 4.9-5.3 9.3-6 18.2-1.9 23.1 12 37 35.5 35.7 10.5-.6 16.4-2.9 21.7-8.5l3.7-3.8-.4 10c-.5 11.2-2.4 16.3-7.7 20.8-4 3.4-12.7 5.1-21.9 4.4-10-.8-14.1-3-17.2-9.5-2.4-4.9-2.6-5.1-6.8-5.2-4.1 0-4.2.1-3.6 2.7 2.2 9.1 8.8 15.4 18.1 17.3 3.1.7 10.4 1 16.2.8 9.1-.3 11.4-.7 16.3-3.1 3.1-1.5 7-4.3 8.7-6.2 5.6-6.5 6.1-10.1 6.1-48.7V630h-8v11.4l-3.6-4.3c-5.7-6.6-10.2-8.4-21.9-8.8-7.9-.3-11.1.1-15.4 1.6zm26.6 6.7c14.5 5.2 19.1 29.9 7.9 43.1-4.5 5.3-10.7 7.7-19.9 7.6-10.7-.2-17.7-3.5-22.2-10.7-2.8-4.7-3-5.5-3-15 0-10.9 1.1-14.2 6.4-19.9 6.3-6.9 19.6-9 30.8-5.1zM365.7 629.4c-4.7 1.7-7.3 4-9.8 8.6l-1.8 3.5-.1-5.8V630h-9v65h9v-19.8c0-21.2.8-26.3 5-32.2 3.2-4.5 9.1-7 16.8-7h6.2v-8h-6.2c-3.5.1-8 .7-10.1 1.4zM406 629.4c-6.6 1.9-10.2 4-14.3 8.5-4.4 4.9-6.1 8.1-7.7 15-2.9 12.5 1.1 28.4 9.1 35.6 11.2 10.1 28.7 12.1 43.4 4.9 6.2-3.1 9.8-6.8 12.6-12.9 2.7-5.9 2.5-6.5-2.6-6.5-3 0-4.5.4-4.5 1.3 0 .7-1.4 3.5-3 6.1-4.4 6.9-11.4 9.9-21.8 9.4-4.7-.2-9.2-1.1-11.4-2.2-8-3.9-13.8-12.9-13.8-21.3V664h61.1l-.7-5.3c-1.4-10.8-5.6-19.5-11.8-24.2-7.6-5.8-23.6-8.1-34.6-5.1zm23.1 7c7.1 3.4 13 11 14.5 18.5l.7 3.1-8.4.1c-4.6.1-16.4.2-26.2.3l-17.9.1.6-3.4c1.5-9.3 7.4-16.4 16.3-19.7 4.9-1.8 15.7-1.3 20.4 1z"/></svg>