<svg xmlns="http://www.w3.org/2000/svg" version="1.0" viewBox="0 0 512 512">
  <path d="M243.2 11.1A32.6 32.6 0 0 0 226 28.7a40.1 40.1 0 0 0 .9 27.2 34.2 34.2 0 0 0 16.4 14.9l5.2 2 .3 27.9.2 28-12.2.6c-32.2 1.7-61.7 10.1-73.5 21-7 6.5-7.7 8.3-8.3 24.2l-.5 14.1-28.5-16.5-28.6-16.5v-9a29 29 0 0 0-2.1-13.8 32.9 32.9 0 0 0-51.2-11.2 38 38 0 0 0-7.8 10.2c-2.4 4.9-2.8 6.9-2.8 14.2 0 6.5.5 9.6 2.1 13.1A31.9 31.9 0 0 0 64.5 178c8.9 0 13.1-1.2 19.5-5.5 2.9-1.9 5.4-3.5 5.6-3.5.3 0 15.1 8.4 32.9 18.7l32.5 18.8v99l-31.1 18c-17.1 9.9-31.9 18.4-32.8 18.8-1.2.6-3.3-.2-7-2.7a29.2 29.2 0 0 0-19.6-5.6 31.9 31.9 0 0 0-28.9 18.9 28.3 28.3 0 0 0-2.1 13.1c0 7.3.4 9.3 2.8 14.2A34.9 34.9 0 0 0 54 396.5c12.3 4.1 26.9.7 35.1-8.2 6.5-7 8.4-12.2 8.3-22.9v-9l28.6-16.5 28.5-16.5.5 14.1c.6 15.9 1.3 17.7 8.3 24.2 11.7 10.8 41.7 19.4 73.5 21l12.2.6-.2 28-.3 27.9-5.2 2a34.2 34.2 0 0 0-16.4 14.9 39.9 39.9 0 0 0-.9 27.1 32.1 32.1 0 0 0 15.5 16.8c7.2 3.5 18.9 4 26.7 1a32.5 32.5 0 0 0 16.8-15.5c3.6-7.2 4-18.9 1-26.8a32 32 0 0 0-17.2-17.5l-5.3-2-.3-27.9-.2-28 12.2-.6c31.8-1.6 61.8-10.2 73.5-21 7-6.5 7.7-8.3 8.3-24.2l.5-14.1 28.5 16.5 28.6 16.5v9c-.1 10.7 1.8 15.9 8.3 22.9a33.6 33.6 0 0 0 41.1 5.2c4.8-3 9.8-8.9 12.4-14.4 3-6.5 2.9-19.7 0-26.2a31.9 31.9 0 0 0-28.9-18.9c-8.9 0-13.1 1.2-19.6 5.6-3.7 2.5-5.8 3.3-7 2.7-.9-.4-15.7-8.9-32.8-18.8l-31.1-18v-99l31.1-18c17.1-9.9 31.9-18.4 32.8-18.8 1.2-.6 3.3.2 7 2.7a29.2 29.2 0 0 0 19.6 5.6c12.4 0 23.5-7.3 28.9-18.9 1.6-3.5 2.1-6.6 2.1-13.1 0-7.3-.4-9.3-2.8-14.2a38 38 0 0 0-7.8-10.2 33 33 0 0 0-51.2 11.2 29 29 0 0 0-2.1 13.8v9L386 172.1l-28.5 16.5-.5-14c-.6-16-1.3-17.8-8.3-24.3-11.8-10.9-41.3-19.3-73.5-21l-12.2-.6.2-28 .3-27.9 5.3-2c20.4-7.6 26-36.9 10.2-52.8a34.5 34.5 0 0 0-35.8-6.9zm22.5 15.5a16 16 0 0 1 7.1 12.6c.5 6.9-1.4 11.7-6.4 15.4-3.3 2.5-4.6 2.9-10.5 2.9-7.3 0-10.3-1.4-14.3-6.9-1.7-2.1-2.1-4.2-2.1-9.6 0-7.7 1.5-10.7 7.6-14.8 2.9-2 4.4-2.3 9.6-2 4.3.3 7.1 1 9 2.4zM73.6 130.8a17.7 17.7 0 0 1 8.4 19.9 17.3 17.3 0 0 1-25.6 9.8A18.2 18.2 0 0 1 48 146c0-12.6 14.5-21.2 25.6-15.2zm382.5.8c4 2.3 7.9 9.5 7.9 14.2 0 9.3-8 17.2-17.4 17.2-14.5 0-22.7-17-13.4-27.6 6.5-7.4 14.5-8.7 22.9-3.8zm-167.6 14c25.5 3.1 48.6 11.1 52.4 18.3 2.5 4.5-8.3 11.6-24.9 16.4-40.6 11.7-105.1 9.1-134.8-5.5a34 34 0 0 1-8.8-6.1c-2.2-2.6-2.3-3.2-1.1-5.1 2.2-3.4 11.5-8.4 21.6-11.7 24.6-7.9 61.8-10.3 95.6-6.3zm-92.4 50.3c18.7 4.7 34.5 6.4 59.9 6.4 33.6 0 61.3-4.5 78.7-12.7l7.3-3.5v39.7l-2.7 3.3c-5.4 6.4-24 12.9-47.5 16.6a342.7 342.7 0 0 1-71.6 0c-23.5-3.7-42.1-10.2-47.5-16.6l-2.7-3.3v-39.7l7.3 3.5c4 1.9 12.5 4.7 18.8 6.3zm-18.5 54.2c8.8 4 26.3 8.4 41.8 10.6 16.8 2.3 56.4 2.3 73.2 0a181.4 181.4 0 0 0 49-13.7c.2 0 .4 8.9.4 19.7 0 17.3-.3 20.1-1.8 21.9-13.7 16.6-80.2 24.7-129.2 15.7-16.6-3-32.7-9.1-38.1-14.5l-2.9-3v-19.9c0-10.9.2-19.9.4-19.9l7.2 3.1zm-2.3 59c35.9 18.4 125.5 18.4 161.4 0 2.3-1.1 4.5-2.1 4.8-2.1.3 0 .5 8.9.5 19.9 0 22.9.1 22.7-9.7 27.8-13.4 7.1-36.1 12-61 13.1-38.5 1.8-72.8-3.1-91.6-13.1-9.8-5.1-9.7-4.9-9.7-27.8 0-11 .2-19.9.5-19.9s2.5 1 4.8 2.1zM72.8 350.4c10.1 5.3 13 18.2 5.9 26.2-5.9 6.8-13.7 8.5-21.3 4.6-11.7-6-12.3-23-1.1-29.7 4.8-2.9 12.2-3.4 16.5-1.1zm382.8 1.1a17 17 0 0 1-.3 29.2c-7.8 4.5-15.8 3.1-22-4.1-12.5-14.2 5.8-34.8 22.3-25.1zM265.7 456.6c5.4 4 6.8 7 6.8 14.3 0 5.8-.4 7.3-2.7 10.3-3.8 5-8.8 7.1-15.5 6.6-5.7-.5-9.2-2.5-12.7-7.2-1.7-2.1-2.1-4.2-2.1-9.6 0-7.7 1.5-10.7 7.6-14.8 2.9-2 4.4-2.3 9.6-2 4.3.3 7.1 1 9 2.4z"/>
  <path d="M187.6 212.4c-3 2.9-3.3 6.5-.8 9.6 2.1 2.5 12.8 5.7 22.3 6.6 5.9.6 6.9.4 8.8-1.5a8 8 0 0 0 2.1-5c0-5.1-2.6-6.8-13.5-9.2-16-3.4-16-3.4-18.9-.5zm-.1 60.1c-3.1 3-3.2 6.6-.2 10 1.7 2 4.5 3 13.2 5a56.8 56.8 0 0 0 13.7 1.9c5.1-1 7.5-7.6 4.3-11.7-.9-1.3-5.4-2.8-13.5-4.8-6.7-1.6-12.9-2.9-13.6-2.9-.8 0-2.6 1.1-3.9 2.5zM187 333a7.1 7.1 0 0 0 1.9 11.4A128 128 0 0 0 213 350c2.8 0 7-4.4 7-7.3 0-4.8-3-6.9-13.6-9.3-12.6-2.9-16.8-3-19.4-.4z"/>
</svg>