<svg xmlns="http://www.w3.org/2000/svg" width="1066.667" height="838.667" version="1.0" viewBox="0 0 800 629"><path d="M437 1.6c-36.9 4.6-72.8 19.7-102.8 43.2-21.2 16.5-40.8 39.7-53.6 63.3l-4.6 8.6-11.3-5.7c-6.2-3.1-15.9-6.9-21.7-8.5-9.9-2.8-11.5-3-29.5-3s-19.5.2-28.5 2.8c-11.7 3.5-18.9 6.5-27.1 11.3-22.6 13.1-40 33.9-49.3 58.6-2.4 6.4-6.6 24.7-6.6 28.6 0 1.5-1.8 2.7-7.8 5.1-23.8 9.6-50.1 30.8-65.7 53C7 289.5-3.1 329.1 1.4 364.8c8.1 63.6 51.3 114.1 111.9 131.1 19.6 5.5 21.9 5.6 103.2 5.6 73.9 0 75.1 0 78.5-2.1 10.7-6.3 10.7-20.5 0-26.8-3.4-2.1-5.1-2.1-81.5-2.7-75.6-.5-78.2-.6-86-2.7-23.6-6.3-41.6-15.9-57.8-31.1-11.5-10.7-24.3-30.1-30.1-45.6-5.7-15.6-7.1-23.6-7.1-43 0-15.3.4-19.3 2.3-27 7.8-31.3 25.4-57 51.1-74.4 7.8-5.3 21.7-12.2 30.3-15 14.2-4.7 16.3-7.6 17.7-25.6 1.7-21.1 7.8-35.7 21.1-49.9 19.4-20.9 48.2-29.8 76.1-23.7 13.9 3.1 23.9 8.3 37.2 19.3 7.4 6.1 12.4 7.6 18.4 5.3 5.7-2.2 8.4-5.8 13.7-18 16.2-37.2 45.6-68.7 81.6-87.4 74.5-38.6 166.3-19.7 219.9 45.4 28.5 34.5 43.5 80.9 40.2 124.3-1.4 17.3.4 22.8 8.2 26.2 2.3 1 8 2.1 12.7 2.5 17.7 1.3 30.3 4.7 44 11.5 29.1 14.7 49.6 40.3 58.1 72.6 2.1 7.7 2.4 11.2 2.4 26.4 0 16-.3 18.3-2.8 27.4-6.6 23.7-19.8 43.9-38.5 58.7-12.2 9.7-24.5 15.9-41.7 20.7l-9 2.6-83.5.5c-81.9.6-83.6.6-87 2.7-11 6.4-10.7 21.3.5 26.9 3.9 2 6 2 85 2 73.7 0 81.9-.2 90.5-1.8 14.9-2.8 25.5-6.3 39.5-13.2 46.2-22.7 75.7-67.6 79.1-120.3 1-14.6-1.8-34.2-7.2-50.7-11.4-35.2-37.8-65.6-71.7-82.6-10.1-5.1-25.7-10.3-37.5-12.6l-9.2-1.7v-8.1c0-106.6-79.2-196.1-185-209-14.9-1.8-37.5-1.8-52 .1z"/><path d="M392.1 274.7c-1.8.9-4.5 3.5-6 5.7l-2.6 4 .4 142 .3 142.1-26.3-26.1c-14.5-14.4-27.8-26.9-29.6-27.8-4.4-2.2-12-2.1-16.1.4-7.7 4.7-9.6 15-4.3 23.1 4.8 7.2 90 90.9 92.6 90.9 2 0 88.6-85.9 92.5-91.9 5.4-8.1 3.5-18.4-4.2-23.1-4.4-2.7-12.2-2.7-16.8 0-1.9 1.1-15.1 13.9-29.2 28.3l-25.7 26.2-.2-24.5c-.1-13.5-.4-77.4-.8-142l-.6-117.5-2.4-3.8c-4.3-6.9-13.7-9.6-21-6z"/></svg>