<svg xmlns="http://www.w3.org/2000/svg" version="1.0" viewBox="0 0 512 512">
  <path d="M224 1.5A256.3 256.3 0 0 0 1 228.2a396.8 396.8 0 0 0 0 55.6A257 257 0 0 0 228.2 511c12.5 1.3 43.1 1.3 55.6 0a255.2 255.2 0 0 0 156.3-76.6A253.1 253.1 0 0 0 512 256c0-20.9-1-32.4-4.6-50.5A256.6 256.6 0 0 0 283.8 1a397.7 397.7 0 0 0-59.8.5zm43.5 129.6a31 31 0 1 1-23 57.6 31 31 0 0 1 23-57.6zm11.4 95.4c4.4 2.6 7 6.2 8.1 11.1.5 2.1 1 28.7 1 59v55.1l9.9.5c7.4.4 10.7 1 13.2 2.4a15.2 15.2 0 0 1-.1 26.8c-3.4 2-4.8 2.1-55 2.1s-51.6-.1-55-2.1a15.2 15.2 0 0 1-.1-26.8c2.5-1.4 5.8-2 13.2-2.4l9.9-.5v-95.4l-9.9-.5c-7.4-.4-10.7-1-13.2-2.4-12.5-7.3-9.7-25 4.4-28.5 1.7-.4 18.3-.7 36.7-.6 31.5.2 33.7.3 36.9 2.2z"/>
</svg>