<svg xmlns="http://www.w3.org/2000/svg" width="1906.667" height="1572" version="1.0" viewBox="0 0 1430 1179"><path d="M896 2.6c-17.4 4.5-32.5 16.4-45.3 35.7-16 24-21.8 40.6-29.2 84.7-1.4 8.5-5.9 33.9-10 56.5-4.1 22.5-10.8 60.3-15 84-4.1 23.6-8 44.1-8.6 45.5-.5 1.4-2.1 3.3-3.3 4.2-1.3 1-42.2 14.3-90.7 29.7C551.1 388.1 543 391 523.5 402.7c-28.2 16.8-42.4 44.3-37.4 71.9 4.7 26 28.1 53.9 57.9 69.3 10.4 5.4 145.8 65.8 149.6 66.7 2.9.7 7.1-1.3 20.8-10.3 5.5-3.7 13.7-9 18.1-11.8 4.4-2.9 12.1-7.8 17-11 5-3.2 12.6-8.2 17-11 4.4-2.9 12.1-7.8 17-11 5-3.2 12.8-8.3 17.5-11.3 14.8-9.5 16.1-10.5 15.3-11.3-.4-.4-40.2-16.4-88.3-35.5-48.1-19.1-87.7-34.9-88-35.1-1.8-1.7 8-5.9 29.3-12.6 13.3-4.2 64-20.3 112.6-35.6 53.6-17 89.1-28.7 90.2-29.8 1.3-1.2 2.5-5.6 3.8-13.3 3.2-18.2 24.1-135.4 32.2-180.3 4.9-27 7.8-40.7 8.6-40.7 1.6 0 6.8 6.6 11.3 14.1 1.9 3.2 10.4 17.2 18.9 31.1 8.5 13.9 30.7 50.7 49.3 81.8 18.7 31.1 34.7 57.3 35.5 58.2 2.5 2.8 6.3 2.2 28.4-3.7 18.7-5.1 157.6-41.9 193.7-51.3 13.2-3.5 15.2-3.8 15.2-2.4-.1 1-.6 2.6-1.3 3.7-.7 1.1-16 19.4-34.2 40.6-74.5 86.8-122.1 143.2-123.2 145.7-.6 1.5-.9 3.8-.6 5.2.3 1.4 12.6 25.2 27.3 53 44.3 83.9 73.8 140.4 74.5 142.8.6 2.1.4 2.2-2.2 1.6-1.5-.4-39.9-11-85.3-23.5-80.1-22-82.5-22.6-82.8-20.5-.2 1.3 2 15 4.7 30.7 2.8 15.6 6.8 39.3 9.1 52.6 2.2 13.3 4.4 25.3 4.9 26.6 1.2 3-3.8 1.3 61.6 21.1 28.1 8.5 63.5 19.3 78.9 24 36.2 11.1 45.3 13 62.6 13 18.9.1 32.6-3.7 47-13 11.4-7.3 21.5-18.8 27-30.6 5.5-11.7 7.3-21.5 6.7-35.8-.5-13.3-2.6-22-8.6-35.3-2.4-5.4-42.1-80.7-91.5-173.8-12-22.7-14.6-28.4-14.6-31.7 0-3.9.9-5.3 13.8-20.4 47.9-56.4 156.6-184.6 158-186.3 15-18.3 23.2-33.8 26.7-50.7 5.7-27.1-7.3-47.8-36-56.8-8.9-2.8-28.6-3.8-40.3-2.1-8 1.2-64.1 15.7-193.3 50.2-35 9.3-65.1 16.9-66.9 16.9-2.2 0-4-.9-5.9-2.9-1.5-1.7-12-18.3-23.2-37.1s-21.1-35.2-21.9-36.5c-.8-1.3-8-13.1-15.8-26.2-7.9-13.1-17.6-29-21.4-35.3-3.9-6.3-9.4-15.3-12.2-20-2.9-4.7-6.5-10.7-8.2-13.3-13.5-22.3-32.3-41-47.8-47.7-11.8-5-27.2-6.4-38.6-3.4z"/><path d="M924.3 665.5c-6.5 2-12.4 5.8-18 11.7-9.3 9.9-9.5 10.4-18.4 64.1C872 837 860.4 897 841.4 981.9c-12.6 56.6-13.7 64-11 75.6 3.8 15.8 13.2 24.4 32.1 29.2 8.5 2.1 38.4 2.3 59.5.4 50.6-4.6 117.7-17.1 148.1-27.7 23.2-8 34.5-17.8 38.5-33.4 2.1-8.3 1.3-15.6-2.7-23.7-3.6-7.5-8.5-11.8-15.8-14-8.9-2.5-17.6-1.4-44.6 6.1-35.5 9.8-70.8 17.2-102.5 21.6-8.6 1.2-37.2 3.1-37.8 2.6-.2-.2 4.4-21.5 10.2-47.3 13.5-60.1 16.3-73.5 29.5-145.3 23.6-127.7 24.7-136.1 19.3-146.5-3.1-6.1-10.1-12.1-16.3-13.9-6.3-1.9-17.8-2-23.6-.1zM641.5 671c-72.4 4.5-136.1 35.2-191 92.1-41.8 43.3-63.4 89.4-67.7 144.9-3.9 51.6 12.6 97.4 48.7 134.9 26.8 27.8 55.6 44.2 90.9 51.7 17.5 3.8 49.1 4.5 68.6 1.6 16.1-2.4 33.8-6.3 46.4-10.2l9.1-2.8 30.5 30.2c40.7 40.2 59.4 56.1 73.6 62.8 5.8 2.7 7.2 3 12.2 2.4 12.9-1.4 28.8-13 34.9-25.4 2.5-5 2.8-6.8 2.8-15.2 0-13.3-1.8-16.7-15.4-29.4-14.9-14-62.1-61.5-62.1-62.6 0-.4 3-3 6.8-5.6 28.1-20 51.4-43.1 66.7-66.5 14.5-22.1 23.6-47.9 28.1-79.9 2.1-14.7 3-57.6 1.5-72.6-4.9-49-23-88.2-53-114.8-30.1-26.6-76-39-131.6-35.6zm20.6 72.1c36.4 3.6 60.6 19.5 75.8 49.6 10.1 20 14.3 41.3 14.2 71.8 0 34.3-5.8 60-17.7 79.1-10.5 17-38.5 41.7-58.9 52.1l-5 2.6-8.8-9.4c-10.9-11.5-22.7-26.1-30.6-37.8-10.8-16-18.9-20.8-34.2-19.9-6.4.4-9.1 1.1-15.1 4.1-13.3 6.6-23.2 19-24.7 30.9-1.9 15.5 4.8 30.2 26.2 57.4l1.7 2.2-8.2.7c-16.4 1.4-37.7-2.9-53.4-10.6-22.4-11-44.9-34.5-55.9-58.1-12.2-26.5-13.5-59.8-3.4-90 14.3-42.9 54-85.4 100.4-107.4 29.9-14.1 66-20.6 97.6-17.3zM243.7 684.1c-25.7 1.9-48.6 8.3-74.2 20.9-25.1 12.3-45.5 26.9-65.6 46.9-13.5 13.5-21.8 24.7-28.5 38.6-6.6 13.7-9.4 24.8-9.4 37.6 0 16.2 4.2 26.2 15.9 37.2 10.7 10 24.8 17.5 44.8 23.6 15.9 4.9 29.7 7 52.2 8.1 60.3 2.9 76.9 5.6 88.4 14.4 6.5 5 10.8 14.1 11.4 24.8 1.7 27.2-17.1 45.9-62.2 61.7-28.9 10.2-52.3 14.5-78.5 14.5-20.4-.1-30.6-2-42.2-8.1-9.6-5-14.6-10.9-19.9-23.5-7.3-17.4-15.8-23.8-31.5-23.8-17.5 0-34 11.7-40.4 28.8-2.7 7-3.7 21.2-2.1 29.7 4.7 25.1 30.1 48 64.1 57.8 39.7 11.5 105.3 9.1 157.5-5.7 68.6-19.4 112-52.9 126.4-97.4 4.6-14.2 5.6-21.3 5.6-39.7-.1-14.3-.4-18.3-2.3-25.5-9.8-36.9-38.2-59.4-86.7-68.4-11.3-2.2-25.9-3.3-57.5-4.6-15.1-.6-31.1-1.8-35.5-2.6-19.2-3.6-29.4-12-28.3-23.4 1.3-13.1 12.4-24.4 35.5-35.9 24.8-12.4 52.5-18.2 76.3-16 10.9 1 9.3.7 31.5 5.5 14.2 3.1 19 3.7 29.5 3.8 11.6.1 12.9-.1 18.3-2.6 8.2-3.9 17.9-13.5 22.2-22.1 5.8-11.6 4.6-18.8-4.5-27-6.3-5.6-17.4-11.2-32-16.1-30.1-10-52.9-13.4-78.3-11.5z"/></svg>