<svg xmlns="http://www.w3.org/2000/svg" width="682.667" height="682.667" version="1.0" viewBox="0 0 512 512"><path d="M243 .6c-12.3 1.3-21.5 2.8-28.5 4.6-62 15.4-110.6 63.1-127 124.8-7.6 28.4-7.6 61.5 0 90 12.8 47.7 47.2 89.6 91.3 111 6.7 3.2 9.1 4.9 8.7 6-1.8 6.1-39.5 171.8-39.3 172.8.2.7 24-15.4 55.7-37.8 30.5-21.4 55.7-39 56.1-39 .4 0 25.6 17.6 56.1 39.1 32.8 23.1 55.5 38.5 55.7 37.7.1-.7-7.9-41-17.8-89.4-9.9-48.5-18-88.8-18-89.5 0-.8 3.8-3.6 8.4-6.2 39.3-22.8 69.3-62.6 80.7-107 6.9-27.1 6.8-60.4-.4-87.3-12.1-45.1-41.1-83.1-81.3-106.7-16.6-9.7-40.1-18.1-59.1-21.2C274.7 1 249.9-.2 243 .6zm33.7 49.9c28.1 4.5 55.8 20.1 74 41.4 12.3 14.4 19.3 26.9 24.9 44 15 45.8 2.5 95.7-32.5 129.4-13.7 13.2-28.6 22.3-46.5 28.4-13.5 4.6-25.7 6.6-40.6 6.6-33.3 0-62.9-11.9-86.9-34.8-18.7-17.8-31.2-40.4-36.8-66.5-2.5-11.8-2.5-37.2 0-49 11.1-51.3 50.8-90.1 101.7-99.4 10.2-1.9 31.5-1.9 42.7-.1z"/><path d="M252.6 76.7c-1.5 4.9-6.8 21.3-11.8 36.5l-9 27.8-38.6.2-38.5.3 30.9 22.4c17 12.3 31 22.5 31.1 22.6.1 0-5.1 16.5-11.6 36.5-6.5 20.1-11.7 36.7-11.5 36.9.2.2 14.3-9.8 31.4-22.2l31-22.6 31 22.6c17.1 12.4 31.2 22.4 31.4 22.2.2-.2-5-16.8-11.5-36.8-6.5-20.1-11.7-36.6-11.6-36.6.1-.1 14.1-10.3 31.1-22.6l31-22.4-38.6-.3-38.6-.2-9-27.8c-5-15.2-10.3-31.6-11.8-36.5-1.6-4.8-3.1-8.7-3.4-8.7-.3 0-1.8 3.9-3.4 8.7z"/></svg>