<svg xmlns="http://www.w3.org/2000/svg" version="1.0" viewBox="0 0 512 512">
  <path d="M190.5 103.5a64.6 64.6 0 0 0-35.1 19.7 63.4 63.4 0 0 0-16 26.3c-2.7 7.8-2.8 8.8-3.3 36l-.6 28-3.4 6.3a41.8 41.8 0 0 1-7.9 10.2c-4.9 4.4-13.5 8-18.7 8H102v36h3.5c5.2 0 13.8 3.6 18.7 8 2.5 2.1 6 6.7 7.9 10.2l3.4 6.3.6 28c.5 27.2.6 28.2 3.3 36 4 11.7 8 18 17 27.1a65 65 0 0 0 41.7 20l6.9.7v-35.1l-4.6-.7a35.4 35.4 0 0 1-24.1-15.7c-4.4-7.1-5.3-13.4-5.3-37.9 0-19.1-.3-23.8-1.9-30.1a75 75 0 0 0-16.9-31l-3.3-3.7 5.5-6.7c3-3.6 7-9.6 8.9-13.3 6.5-12.4 6.9-14.9 7.7-45.1.8-31.7 1.2-33.8 9.2-42.5a35 35 0 0 1 20.1-11.1l4.7-.6V102l-4.2.1c-2.4 0-7 .7-10.3 1.4zM307 119.2v17.6l4.8.7a34.8 34.8 0 0 1 27.2 23.2c1.8 5.7 2 9.3 2 29.2 0 15.9.5 24.7 1.5 29.6a77 77 0 0 0 15 29.8l5.6 6.8-3.3 3.7a74.6 74.6 0 0 0-17.3 32.8c-1 4.9-1.5 13.5-1.5 29.5 0 19.9-.2 23.5-2 29.2a34.8 34.8 0 0 1-27.2 23.2l-4.8.7v35.1l6.9-.7c8.5-.7 18.7-3.8 26.6-7.9a91 91 0 0 0 26.8-26.7c7.2-13.2 7.9-17.3 8.6-48.5l.6-28 3.4-6.3c1.9-3.5 5.4-8.1 7.9-10.2 4.9-4.4 13.5-8 18.7-8h3.5v-36h-3.5c-5.2 0-13.8-3.6-18.7-8-2.5-2.1-6-6.7-7.9-10.2l-3.4-6.3-.6-28c-.7-31.2-1.4-35.4-8.6-48.4a86 86 0 0 0-24.5-25.4 76.8 76.8 0 0 0-28.8-9.3l-7-.7v17.5z"/>
</svg>