<svg xmlns="http://www.w3.org/2000/svg" version="1.0" viewBox="0 0 395 497">
  <path d="M150 1.5c-50.2 4-95.2 15.6-121.3 31.2A82 82 0 0 0 5.4 54.1C.4 63.8.6 55.7.2 242 0 358.5.3 418.8 1 425.5a38.6 38.6 0 0 0 13.2 28.1c7.7 7 14.4 11.4 26.2 17 27.6 13 66.3 21.7 111.9 25.4 19.1 1.5 75.2 1.2 95.3-.5 54.1-4.6 100.4-17.6 124.9-35a72.4 72.4 0 0 0 17.7-18.1c4.4-8.5 4.3-4.4 4.3-194.4 0-201 .5-185.8-6.7-196.6C373.8 30.6 331.4 13 276 5a671.6 671.6 0 0 0-126-3.5zm101.5 30.9c29.2 3.3 50.8 7.7 71.5 14.5 21.7 7.2 36.4 15.3 40.1 22.3 1.6 2.9-1.7 8.4-7.5 12.8-29.6 22.1-109 36-182.6 32-53.5-2.8-96.1-11.6-121.6-24.9a62.2 62.2 0 0 1-19.5-15.2c-2.4-4.6 6.8-12.6 23.4-20.3 25.3-11.8 58-19 103.2-22.6a929 929 0 0 1 93 1.4zM57.8 124.6a358 358 0 0 0 79.2 17.1 937 937 0 0 0 118.5 0c44.8-4.9 70.8-11 97.4-23l12.1-5.5v77l-6.2 6.2c-6.9 6.8-16.4 12-32.3 17.5a349 349 0 0 1-67 15 711.2 711.2 0 0 1-76 2.7c-42.5-1.2-61.6-3.5-90.9-10.8-29.4-7.3-47-15.1-56.8-25l-5.8-5.9v-76.8l7.8 3.6c4.2 1.9 13.3 5.5 20 7.9zM46.5 238.5A377.9 377.9 0 0 0 133 259a957.5 957.5 0 0 0 129 0c31-3.4 63.1-11.5 92.2-23.1l10.3-3.9c.9 0 .5 67.8-.5 73.1-.8 4.8-1.6 6-6.6 10.6-32.3 29.9-157.1 43.4-246.6 26.8-34.2-6.3-62.7-17.1-75.1-28.5l-5.7-5.2v-35.3c0-19.4.3-36.6.6-38.3l.6-3.1 3.7 1.5 11.6 4.9zm-7.7 113.9c38.4 19.3 110.4 29.8 182.5 26.6 58.8-2.5 100.1-10.4 131.7-25.1 8.8-4.1 10.6-4.6 11.3-3.3.5.8.7 17.6.5 37.2-.4 39.5-.4 39.7-6.9 45.9-4 3.7-22.9 13-34.4 16.8-19 6.2-47.1 11.8-74 14.7-18.9 2-87.9 1.7-107.5-.5-38.9-4.4-66.8-11.3-89.5-22.1-13-6.2-17.1-9.4-19.9-15.6-1.9-4.2-2.1-6.8-2.4-34.8-.4-27.3.2-43.2 1.4-43.2.2 0 3.5 1.5 7.2 3.4z"/>
  <path d="M66.4 160.9c-7.1 4.3-9.5 13.7-5.1 20.2 1.7 2.6 4.1 4.1 10.2 6.6 12.7 5.1 39.8 9.7 46.7 8 6.4-1.6 11-10.8 8.9-17.9-2.2-7.2-9.1-10.3-35.9-15.8-17.3-3.5-20.6-3.7-24.8-1.1zm0 116.9c-9.2 5.8-9.8 17.5-1.4 24.6 5.4 4.5 34.2 11.6 47.4 11.6 6.4 0 7-.2 10.1-3.3a20 20 0 0 0 4.5-7.5c1.1-3.5 1.1-4.8-.4-8.6-2.2-5.8-5.9-7.5-28.6-13.3-22.1-5.5-27.4-6.1-31.6-3.5zm0 118.6a14.1 14.1 0 0 0-3.6 23c3 2.6 21.8 8.1 38 11.1 13.3 2.5 13.6 2.5 17.1.7 5.7-3 9.4-8.4 9.4-13.6 0-9.9-5.8-13.5-30.8-19.1-14.8-3.3-25.8-4.1-30.1-2.1z"/>
</svg>