<svg xmlns="http://www.w3.org/2000/svg" version="1.0" viewBox="0 0 512 512">
  <path d="M19.4 74.1A33 33 0 0 0 3.5 86.4l-3 4.9v329.4l3 4.9A32.3 32.3 0 0 0 19.8 438c2.5.6 68 1 195.3 1 186.6 0 191.7-.1 194-1.9 3.3-2.7 3.3-9.5 0-12.2-2-1.7-4.1-1.9-17.2-1.9H377v-49h120.2l-.4 19.7c-.5 30.2.7 29.3-35.6 29.3-23.7 0-25.1.1-27.6 2.1a7.7 7.7 0 0 0 .1 11.9c2.6 2.1 3.4 2.1 30.8 1.8 26.6-.3 28.2-.4 32.1-2.5 6.5-3.5 10-6.9 12.8-12.5l2.6-5.2V93.4l-2.6-5.2c-2.8-5.6-6.3-9-12.8-12.5l-4.1-2.2-147-.3c-80.8-.1-148 0-149.2.3-2.9.7-5.7 5.9-4.9 9.1.4 1.4 1.5 3.3 2.6 4.4 2 2 4 2 147 2 159.6 0 150.1-.4 153.7 6.2 1.6 3 1.8 6.6 2.1 36l.3 32.8H106V89h30.4c29.2 0 30.4-.1 33-2.1a7.7 7.7 0 0 0 0-11.8c-2.6-2.1-3.3-2.1-74.8-2-40 0-73.5.5-75.2 1zM90 126.5V164H14.9l.3-32.8c.3-28.5.5-33.1 2-35.8C20.5 89.3 22 89 57.8 89H90v37.5zm0 175V423H57.9c-35.6 0-37.3-.3-40.7-6.4-1.6-2.9-1.7-12-2-119.9L15 180h75v121.5zm136-97V229H106v-49h120v24.5zm135 0V229H242v-49h119v24.5zm136 0V229H377v-49h120v24.5zM226 269v24H106v-48h120v24zm135 0v24H242v-48h119v24zm136 0v24H377v-48h120v24zm-271 64.5V358H106v-49h120v24.5zm135 0V358H242v-49h119v24.5zm136 0V358H377v-49h120v24.5zm-271 65V423H106v-49h120v24.5zm135 0V423H242v-49h119v24.5z"/>
</svg>