<svg xmlns="http://www.w3.org/2000/svg" version="1.0" viewBox="0 0 512 512">
  <path d="M223.5 3.5a254.6 254.6 0 0 0-196.1 141A238.6 238.6 0 0 0 2 256.2c0 41.5 7.7 75.3 25.5 111.3a253.9 253.9 0 0 0 201.4 141.6c13.6 1.5 53 .6 66.6-1.5 13.9-2.3 35.1-7.7 47-12.1a338.3 338.3 0 0 0 52.5-26.2c37-24.3 67.6-58.4 87.5-97.3 14.2-28 21.9-52.9 26.1-85 2.3-17.5 1.5-55.4-1.4-72.6-4.7-27-10.9-45.8-23.1-70.9A253.6 253.6 0 0 0 297.6 4.8a375 375 0 0 0-74.1-1.3zm-59.7 128c2.5 1.1 17.6 15.5 48 45.8l44.2 44.2 44.3-44.2c30.3-30.3 45.4-44.7 47.9-45.8a29 29 0 0 1 19.3.4 26.6 26.6 0 0 1 12.6 12.6 29 29 0 0 1 .4 19.3c-1.1 2.5-15.5 17.6-45.8 47.9L290.5 256l43.8 43.2c47.7 47.3 47.8 47.4 47.8 58.4 0 8-3.8 15.4-10.4 20.3-5.6 4.1-10.4 6.1-14.6 6.1-7.1-.1-10.7-3.2-56.3-48.8L256 290.5l-44.7 44.6c-48.8 48.6-47.4 47.5-58.2 46.7-9.7-.7-17.4-6-21.2-14.3a29 29 0 0 1-.4-19.3c1.1-2.5 15.5-17.6 45.8-48l44.2-44.2-44.2-44.3c-30.3-30.3-44.7-45.4-45.8-47.9a29 29 0 0 1 .4-19.3 26.6 26.6 0 0 1 12.6-12.6 29 29 0 0 1 19.3-.4z"/>
</svg>