<svg xmlns="http://www.w3.org/2000/svg" version="1.0" viewBox="0 0 512 512">
  <path d="m52.5 46.2-10 1.7c-15.4 2.6-29.3 8.7-35 15.4L4 67.4v144.2l3.5 4.1c5.7 6.7 19.8 12.9 35 15.4l11 1.8c7.8 1.4 41.2 1.4 49 0L114 231c6.1-1.1 15.4-3.5 18.5-4.9 11.3-4.9 17.3-9.7 19.5-15.7 1.3-3.4 1.3-138.4 0-141.8-2.2-6-8.2-10.8-19.5-15.7-3.1-1.4-12.4-3.8-18.5-4.9l-11.5-1.9a321 321 0 0 0-50 .1zm56 11.8a77.5 77.5 0 0 1 29.8 10.2c4.2 3.4 4.4 4.1 2 6.7-4.7 4.9-18.6 9.6-35.8 12.2-32.7 4.8-72.4-.2-86.2-10.7-4-3.1-4.2-5.8-.5-8.1L21 66c1.6-1.6 17.9-6.6 27.5-8.3a246 246 0 0 1 60 .3zM17.6 88.9c2.9 3 21.1 7.5 38.7 9.7 25 3.1 55.4.4 76-6.9 3.2-1.1 6-2.4 6.3-2.8.3-.5 1.2-.9 2-.9 1.1 0 1.4 2.6 1.4 14.8v14.9l-3.5 3.1a16.3 16.3 0 0 1-4.1 3.2 127.4 127.4 0 0 1-39.6 8.6 134.1 134.1 0 0 1-33.5 0c-22.9-2.1-35.1-5.3-43-11.3l-3.3-2.4v-15.5c0-8.4.4-15.4.8-15.4s1.2.4 1.8.9zm12.5 49.7c15.5 4.2 26 5.4 47.8 5.4 27.9 0 46.7-3.1 59.9-9.9l4.2-2.1v15.3c0 14.6-.1 15.4-2.2 17.4-4.2 3.8-9.8 6.2-21.3 9.2-28.8 7.6-71.6 5.6-94-4.3-9.9-4.4-9.5-3.6-9.5-21.6v-15.7l4.8 2.4c2.7 1.3 7.3 3.1 10.3 3.9zm108.3 72c-4.7 4-16.7 8.1-30.4 10.5a238.7 238.7 0 0 1-58.5.3A114.8 114.8 0 0 1 21 213l-3.3-2.3L15 209v-15.6c0-8.6.4-15.4.8-15.2 28.5 12.2 71.4 14.6 106 6.1 5.7-1.4 12.4-3.6 15-4.8l4.7-2.3.3 15.2.3 15.1-3.7 3.1z"/>
  <path d="M27.1 107.4c-.7.8-1.1 2.7-.9 4.3.4 3.4 2.7 4.6 13.2 6.8 7.3 1.5 7.9 1.5 9.7-.1a6 6 0 0 0 1-7.3c-1.1-1.7-13-5-18.2-5-2-.1-4.2.5-4.8 1.3zm.6 44.1a6.2 6.2 0 0 0-.8 7.4c1.3 2 10.5 4.5 17.1 4.5 5.1.1 5.5-.1 6.4-2.7 1.2-3.4-.1-5.9-3.5-6.9-13.9-3.8-17.3-4.2-19.2-2.3zm-.1 45.1c-1.7 1.6-2.1 5.2-.8 7 2.3 3.3 19.9 6.8 22.7 4.4 2.3-1.9 1.9-6.7-.7-8.4-2-1.2-15.6-4.6-18.7-4.6-.5 0-1.7.7-2.5 1.6zM408.5 46.2l-10 1.7c-15.4 2.6-29.3 8.7-35 15.4l-3.5 4.1v144.2l3.5 4.1c5.7 6.7 19.8 12.9 35 15.4l11 1.8c7.8 1.4 41.2 1.4 49 0L470 231c6.1-1.1 15.4-3.5 18.5-4.9 11.3-4.9 17.3-9.7 19.5-15.7 1.3-3.4 1.3-138.4 0-141.8-2.2-6-8.2-10.8-19.5-15.7-3.1-1.4-12.4-3.8-18.5-4.9l-11.5-1.9a321 321 0 0 0-50 .1zm56 11.8a77.5 77.5 0 0 1 29.8 10.2c4.2 3.4 4.4 4.1 2 6.7-4.7 4.9-18.6 9.6-35.8 12.2-32.7 4.8-72.4-.2-86.2-10.7-4-3.1-4.2-5.8-.5-8.1L377 66c1.6-1.6 17.9-6.6 27.5-8.3a246 246 0 0 1 60 .3zm-90.9 30.9c2.9 3 21.1 7.5 38.7 9.7 25 3.1 55.4.4 76-6.9 3.2-1.1 6-2.4 6.3-2.8.3-.5 1.2-.9 2-.9 1.1 0 1.4 2.6 1.4 14.8v14.9l-3.5 3.1a16.3 16.3 0 0 1-4.1 3.2 127.4 127.4 0 0 1-39.6 8.6 134.1 134.1 0 0 1-33.5 0c-22.9-2.1-35.1-5.3-43-11.3l-3.3-2.4v-15.5c0-8.4.4-15.4.8-15.4s1.2.4 1.8.9zm12.5 49.7c15.5 4.2 26 5.4 47.8 5.4 27.9 0 46.7-3.1 59.9-9.9l4.2-2.1v15.3c0 14.6-.1 15.4-2.2 17.4-4.2 3.8-9.8 6.2-21.3 9.2-28.8 7.6-71.6 5.6-94-4.3-9.9-4.4-9.5-3.6-9.5-21.6v-15.7l4.8 2.4c2.7 1.3 7.3 3.1 10.3 3.9zm108.3 72c-4.7 4-16.7 8.1-30.4 10.5a238.7 238.7 0 0 1-58.5.3A114.8 114.8 0 0 1 377 213l-3.2-2.3-2.8-1.7v-15.6c0-8.6.4-15.4.8-15.2 28.5 12.2 71.4 14.6 106 6.1 5.7-1.4 12.4-3.6 15-4.8l4.7-2.3.3 15.2.3 15.1-3.7 3.1z"/>
  <path d="M383.1 107.4c-.7.8-1.1 2.7-.9 4.3.4 3.4 2.7 4.6 13.2 6.8 7.3 1.5 7.9 1.5 9.7-.1a6 6 0 0 0 1-7.3c-1.1-1.7-13-5-18.2-5-2-.1-4.2.5-4.8 1.3zm.6 44.1a6.2 6.2 0 0 0-.8 7.4c1.3 2 10.5 4.5 17.1 4.5 5.1.1 5.5-.1 6.4-2.7 1.2-3.4-.1-5.9-3.5-6.9-13.9-3.8-17.3-4.2-19.2-2.3zm-.1 45.1c-1.7 1.6-2.1 5.2-.8 7 2.3 3.3 19.9 6.8 22.7 4.4 2.3-1.9 1.9-6.7-.7-8.4-2-1.2-15.6-4.6-18.7-4.6-.5 0-1.7.7-2.5 1.6zm-312.3 81c-1.8.9-4.2 3.1-5.3 4.9-1.9 3.1-2 4.9-2 49.1 0 42.6.1 46.2 1.8 49.3 3.4 6.4 6.3 7.1 27.4 7.1H112v3.9c0 2.1.9 9 1.9 15.3 5.1 29.8 16.2 50.2 31.3 57.7l6.1 3.1H255c120.1 0 109.2.9 120.6-10.4 11.1-11.1 18.7-28.5 22.8-52.5.9-5.2 1.6-11.2 1.6-13.3V388h18.8c21.1 0 24-.7 27.4-7.1 1.7-3.1 1.8-6.7 1.8-48.9 0-42.2-.1-45.8-1.8-48.9-2.5-4.6-7.4-7.1-14-7.1-6.7 0-11.6 2.2-14.2 6.5-1.9 3.1-2 4.9-2 38.4V356h-79v-2.5c0-3.9 3.8-20.6 6.5-28.6 2.3-6.6 7-15.9 8-15.9 1.3 0 5.8 8.4 7.9 14.8 3.2 9.2 5.5 12.5 10.9 15.1 7.4 3.6 12.6 2.4 18.5-4.3 4.8-5.5 5.1-10.8 1.4-21.2-6.3-17.6-14.9-29.2-25.5-34.4l-6.2-3-104 .2-104 .3-4.6 2.3c-9.5 4.6-19 17.1-25 32.6-3.8 9.9-7.7 26.5-8.5 36.8l-.7 7.8H96v-34.8c0-38.9-.1-39.7-7.1-43.4a23.8 23.8 0 0 0-17.6-.2zm242.4 31.7c-2.3 6.1-5.9 19.1-7.4 26.8a344.6 344.6 0 0 0 0 71.8c1.5 7.7 5.1 20.7 7.4 26.8.4 1.1-12.9 1.3-75.4 1.3h-75.9l-2.7-2.8c-5.6-5.9-11.3-22-13.6-38.7-1.6-10.9-1.3-36.4.4-47.5a97 97 0 0 1 11.1-34.8l2.5-4.2h77c63.5 0 77 .2 76.6 1.3zm53.3 81.2c0 3.9-3.8 20.6-6.5 28.6-3 8.6-7.2 16.2-8.8 15.6-.7-.2-2.9-3.7-5-7.8-3.9-7.8-8.1-22.5-9.3-32.8l-.7-6.1H367v2.5z"/>
</svg>