<svg xmlns="http://www.w3.org/2000/svg" version="1.0" viewBox="0 0 512 512">
  <path d="M235 43.2a218.1 218.1 0 0 0-115.2 47.9 215.4 215.4 0 0 0-75.4 134 255.6 255.6 0 0 0 0 61.8A214.8 214.8 0 0 0 138 434.5c4.7 3.1 15.1 8.9 23.1 12.9a213.5 213.5 0 0 0 273.4-73.8 214.1 214.1 0 0 0-13.6-253.8A215.1 215.1 0 0 0 235 43.2zm48 23.4a191.9 191.9 0 0 1 162.4 162.1c2.1 14.4 2.1 40.1.1 54.2a191.6 191.6 0 0 1-41.8 94.5c-6 7.3-7.7 8.7-7.7 6.5 0-2.6-9.5-20.9-15.8-30.4a189 189 0 0 0-34.7-36.6 157 157 0 0 0-32-17.9 42 42 0 0 1-8.4-3.9c0-.3 2.7-2.8 6-5.4a88.5 88.5 0 0 0 28-44.2c3.1-11.5 3.1-31.8 0-43a85.5 85.5 0 0 0-61.6-61.6 71.7 71.7 0 0 0-21.5-2.2c-10.7 0-15.2.5-21.5 2.2a85.5 85.5 0 0 0-61.6 61.6 100.6 100.6 0 0 0 0 43 88 88 0 0 0 31.5 47.3c1.6 1.2 2.7 2.4 2.5 2.6a163 163 0 0 0-38.9 20.5 188 188 0 0 0-36.3 37.6 154.7 154.7 0 0 0-15.7 30.4c0 2.2-1.7.8-7.7-6.5a194.9 194.9 0 0 1-40.9-87.9 255.6 255.6 0 0 1-1-59.5 189.9 189.9 0 0 1 30.3-79.7A191 191 0 0 1 283 66.6zm-17.5 94.9c21.2 2.3 41.4 18.9 50.2 41 2.6 6.5 2.8 8 2.8 21.5 0 14-.1 14.8-3.2 22.5a68 68 0 0 1-31.9 34.5 57.4 57.4 0 0 1-27.4 6.1 57.4 57.4 0 0 1-27.4-6.1 68 68 0 0 1-31.9-34.5c-3.1-7.7-3.2-8.5-3.2-22.5 0-13.5.2-15 2.8-21.5a65.2 65.2 0 0 1 38.1-38 68 68 0 0 1 23.6-3.9l7.5.9zm10.5 150a129.1 129.1 0 0 1 100.3 84.2l2.6 7.2-7.4 5.6A187.5 187.5 0 0 1 256 447.1c-42.7 0-81.4-12.9-115.5-38.6l-7.4-5.6 2.6-7.2a131 131 0 0 1 62.6-71.9 154.4 154.4 0 0 1 36.8-12.2c11.4-1.9 29.4-1.9 40.9-.1z"/>
</svg>