<svg xmlns="http://www.w3.org/2000/svg" version="1.0" viewBox="0 0 512 512">
  <path d="M353.5 65.7A22.3 22.3 0 0 0 341.6 82c-.4 1.9.2 8.3 1.2 14.2 1.1 6 1.8 10.8 1.7 10.8l-10.6-4.9a182.5 182.5 0 0 0-190.4 22.4 213.1 213.1 0 0 0-34.8 36.6 218.2 218.2 0 0 0-23.6 46.1 183.8 183.8 0 0 0 14.1 150.1 183.8 183.8 0 0 0 92.8 79.3 169.3 169.3 0 0 0 58.6 11.1c21.6.7 33.9-.6 51.9-5.2a172.7 172.7 0 0 0 80.4-45c21.8-21 36.9-44.6 46-72.1 4-11.8 8.1-29.7 8.1-34.9 0-8.3-6.8-18-14.5-20.5-6.1-2-14.8-.9-19.7 2.6-5.7 4-8.3 8.9-10.2 19.5a138 138 0 0 1-212.4 89.2c-11.1-7.4-27.3-23-35.2-34-7.7-10.8-17-29.8-20.5-41.8a138.2 138.2 0 0 1 49.4-148.8 132.9 132.9 0 0 1 78.2-27.4c24-.9 41 2.6 62.3 12.5l9.8 4.6-15.8 2.8c-13.1 2.2-16.5 3.2-19.8 5.5-11.7 8.3-11.6 27 .2 35.6 6.8 5 10.4 4.8 54.7-2.8 21.4-3.6 40.5-7.3 42.3-8.2 4.8-2.3 9.9-8.7 11.2-14.3 1-4.1.7-7.4-2.5-26.1-8.2-48.5-10.6-61.1-11.9-63.7a26.3 26.3 0 0 0-10.9-10.1 32 32 0 0 0-18.2.6z"/>
</svg>