<svg xmlns="http://www.w3.org/2000/svg" version="1.0" viewBox="0 0 512 512">
  <path d="M230.5.7A257.6 257.6 0 0 0 2.7 215C.8 225.9.6 231.2.6 256s.2 30.1 2.1 41c9.4 54 32 98.7 69.3 137.4 38.3 39.8 86.6 65 143 74.9 10.9 1.9 16.2 2.1 41 2.1 31.3 0 40.7-1 65.3-7.3a258.2 258.2 0 0 0 182.8-182.8c6.3-24.6 7.3-34 7.3-65.3 0-31.3-1-40.7-7.3-65.3A258.4 258.4 0 0 0 321.3 7.9 209.4 209.4 0 0 0 260 .5c-14-.2-27.3-.1-29.5.2zm162.7 154.9a39.4 39.4 0 0 1 16.6 17.2c2.3 4.8 2.7 7.1 2.7 14.2-.1 15.7 6 8.6-89.9 104.8-67.7 67.8-86.1 85.8-90.2 87.8a36.5 36.5 0 0 1-31.3.3c-3.4-1.6-16.1-13.7-49.9-47.3-39.3-39.1-45.7-45.9-48.4-51.3a34.7 34.7 0 0 1 10.7-43.5 35.6 35.6 0 0 1 34-4.8c5.6 2.1 8.1 4.4 37 33.1 17.1 17 31.5 30.9 32 30.9s32.5-31.4 71-69.9c54.7-54.6 71-70.3 74.8-72.1a36.3 36.3 0 0 1 30.9.6z"/>
</svg>