<svg xmlns="http://www.w3.org/2000/svg" version="1.0" viewBox="0 0 512 512">
  <path d="M249 14.7A73.8 73.8 0 0 0 195.3 45 27100 27100 0 0 0 6.9 390.6 61.2 61.2 0 0 0 .3 425c.3 9.9 1 14.2 3 20.5a74.7 74.7 0 0 0 37.9 44c17.3 8.7-.5 8 214.8 8s197.5.7 214.8-8a75 75 0 0 0 37.9-44 62.1 62.1 0 0 0 3-20.5c.6-14.9-.8-22.3-6.6-34.4-6.9-14.8-184.3-340-188.4-345.6a75 75 0 0 0-44.4-28.9c-6.4-1.2-18.9-2-23.3-1.4zM266.4 140c6.9 2.6 13 8.5 16.4 15.8l2.7 5.7v80c0 90.1.3 85.9-7.6 94.9a29 29 0 0 1-43.8 0c-7.9-9-7.6-4.8-7.6-94.9v-80l2.7-5.7a29.2 29.2 0 0 1 37.2-15.8zm0 240a29.3 29.3 0 0 1 11.5 46.4 29 29 0 0 1-43.8 0c-19.8-22.6 4.1-56.9 32.3-46.4z"/>
</svg>