<svg xmlns="http://www.w3.org/2000/svg" version="1.0" width="840.000000pt" height="599.000000pt" viewBox="0 0 840.000000 599.000000" preserveAspectRatio="xMidYMid meet">
<metadata fill="#10b981">
Created by potrace 1.16, written by Peter Selinger 2001-2019
</metadata>
<g transform="translate(0.000000,599.000000) scale(0.100000,-0.100000)" fill="#10b981" stroke="none">
<path d="M3930 5555 c-807 -83 -1529 -545 -1949 -1248 -101 -168 -223 -451 -261 -604 -12 -47 -22 -59 -113 -140 -355 -316 -698 -794 -907 -1263 -99 -222 -223 -597 -194 -586 126 48 555 173 804 233 114 27 469 103 484 103 2 0 11 -21 21 -48 33 -90 160 -327 233 -437 196 -293 449 -545 742 -738 154 -101 418 -228 597 -287 835 -274 1743 -110 2433 440 321 256 602 630 761 1010 12 30 23 56 25 58 3 5 297 -57 492 -104 222 -53 445 -116 650 -182 136 -45 152 -48 152 -31 0 35 -112 364 -171 502 -225 526 -515 935 -954 1347 l-80 74 -32 106 c-17 58 -52 154 -78 215 -445 1062 -1512 1698 -2655 1580z m-870 -1035 c157 -46 274 -163 343 -344 31 -78 32 -86 32 -241 0 -155 -1 -163 -33 -255 -59 -169 -157 -302 -287 -389 -109 -72 -186 -96 -315 -96 -82 0 -117 5 -162 22 -330 123 -461 565 -278 938 104 212 290 356 495 383 74 10 121 6 205 -18z m2570 0 c277 -80 490 -393 490 -721 0 -344 -229 -609 -524 -609 -271 1 -517 212 -612 525 -24 78 -27 107 -27 220 0 113 3 141 26 210 69 212 222 357 411 390 83 15 147 11 236 -15z" fill="#10b981"/>
</g>
</svg>