<svg xmlns="http://www.w3.org/2000/svg" width="3326.667" height="1290.667" version="1.0" viewBox="0 0 2495 968"><path d="M5.1 1.6c-1.5.6-3.2 2.3-3.9 3.8-1.8 4-1.7 709 .1 712.6.7 1.4 2.8 3.3 4.7 4.3 3.2 1.6 6.9 1.7 43.3 1.5l39.9-.3 2.9-3.3L95 717l.1-79.3v-79.2l21.1-20c11.5-11 21.4-20 21.8-20 .5 0 34.7 43.2 76 96s77 98.1 79.2 100.8c7.7 9.2 4.5 8.8 63.9 8.5l52.1-.3 1.9-2.4c4.8-5.9 10.4 1.7-102.1-138.2-57.2-71.1-104-129.6-104-130 0-.5 44.5-43.8 99-96.4 60.5-58.4 99.2-96.6 99.6-98.1.8-3.2-.2-7-2.6-9.4-1.9-1.9-3.6-2-55-2-51.8 0-53.2.1-57.2 2.1-2.5 1.3-22.6 20.8-55.1 53.7-28.1 28.4-70.8 71.5-94.9 95.7l-43.8 44V7l-2.7-3L89.5.9 48.6.7C20.5.6 6.9.8 5.1 1.6zM1882.3.8c-1.2.2-3.4 1.7-4.8 3.3l-2.5 3.1V717l2.9 3.2 2.9 3.3h83.4l2.9-3.3 2.9-3.2V363c0-222.5-.4-354.8-1-356.4-2.1-5.6-2.3-5.6-45.1-5.9-21.7-.1-40.4-.1-41.6.1zM606.5 237.1c-42.5 2.7-78.4 12.5-116.3 31.5-18.4 9.3-39.7 23.1-43 27.8-3.8 5.6-3.1 8.2 6.5 21.7 24.1 34.5 32.6 46 34.9 47.6 3.6 2.3 6.8 1 20.4-8.1 34.1-23.1 73.4-35 115.5-35 14.3 0 18.2.3 24.6 2.1 16.3 4.6 31.9 14.5 42.3 26.9 6.3 7.6 14.6 23.4 17.1 32.9 1.7 6.6 3.1 25.8 2.2 29.7-.6 2.4-1 2.5-17.9 4.2-52.5 5.3-121.3 18.3-152.3 29-33.9 11.6-56.9 25-76.6 44.5-25.2 25.1-36.9 54.7-36.9 93.2 0 34.9 10.2 63.5 32 90.4 21 25.7 55.7 45.9 92.2 53.5 27.8 5.8 66.2 4.9 94.3-2.1 19.6-4.9 42-14.4 57-24.2l7-4.6.5 9.7c.3 5.3.9 10.5 1.4 11.4.4.9 2.3 2.4 4.1 3.2 2.8 1.4 8.9 1.6 42.5 1.6 42.9 0 43.5-.1 46-6 .8-1.8 1-50.4.7-164.5-.4-173.7-.2-165.3-5.2-187.9-4.4-19.3-13.5-41-23.7-56.1-23.2-34.4-65.3-60.2-113.3-69.4-8.6-1.7-39.2-4.5-43-3.9-.5 0-6.4.4-13 .9zm102.9 317.6c-.6 46.6-.8 53-2.3 54.7-4.1 4.7-23.5 18-33.5 23-21.1 10.5-37 14.5-60.6 15.3-26.9.9-46.5-3.5-63.9-14.2-9.2-5.7-13.5-9.4-18.5-15.9-7.7-10.2-11.5-24.3-9.7-36.7 1.5-10.3 2.6-13.6 6.7-20.4 4.6-7.8 7.2-10.5 16.9-17.7 19.3-14.5 47.2-23.8 95.5-31.8 19.4-3.2 61.1-8.8 66.8-8.9l3.3-.1-.7 52.7zM1041.7 238.1c-32.8 3.4-67.9 17.3-94.2 37.3-32.4 24.6-59.6 65.1-75.7 112.6-11.5 33.9-15.6 64.8-14.5 108 .8 31.6 3.4 49.2 10.7 74.9 12.7 44.1 34.3 81.8 62.1 108.6 30.4 29.3 65.1 46 107.8 52.1 14.9 2.1 54.2 2.1 68.6 0 33.5-4.9 63-16.3 88.5-34.3l7.5-5.3.3 25.7c.4 30.2-1.1 56.5-3.9 70.7-8.2 41.3-29.1 68.2-63.9 82.4-13.9 5.6-40.6 10.2-59.4 10.2-35.3 0-74-18.7-110-52.9-5.1-4.9-10.3-9.2-11.5-9.6-5.9-1.8-7.6-.5-35.3 27.2-14.6 14.8-27.1 27.9-27.8 29.2-2 3.9-.4 8.3 4.8 13.2 13.7 13.2 51.6 42.4 64.8 49.9 24 13.7 53.7 23.4 86.4 28.1 11.1 1.6 48.3 1.6 63 .1 22.1-2.4 46.1-8.1 64.3-15.3 67.5-26.8 107.5-82 119.1-164.4 3.4-24 3.6-38.6 3.6-286.3V252.8l-2.9-2.9-2.9-2.9h-83.1l-2.8 2.4c-2.7 2.4-2.8 2.7-3.3 15.5l-.5 13-10-6.5c-23.5-15.2-51.6-26.1-79.5-30.9-13-2.2-19.2-2.7-38.5-3-12.6-.2-27 0-31.8.6zm76.8 95.7c39.9 7.7 66.9 26.9 81.1 57.8l3.4 7.3V575l-3.6 7.3c-5.1 10.1-11 18.1-19.5 26.3-8.3 7.9-13.6 11.7-22.4 16.2-14.9 7.5-29.7 11.8-50.5 14.8-8.8 1.2-16.1 1.5-32 1.1-18.2-.4-21.6-.8-29.8-3.1-42.1-11.8-71.8-45.1-82.6-92.6-8.2-35.6-8-86.4.3-122.2 7.4-31.7 23.2-57.2 44.8-72.3 11.9-8.4 28.8-14.8 47.3-18.1 11.9-2.1 49.6-1.2 63.5 1.4zM1541 238.1c-42.2 4.5-84.9 25.4-114 55.5-11.4 11.8-16.7 18.6-26.7 34.2-18.4 28.8-31.7 62.1-38.4 96.4-6.4 33.1-6.6 87.7-.4 120.8 6 32.3 17.8 63.8 34 90.8 10.3 17.4 18.9 28.6 31.5 41.3 28.2 28.4 64.3 46.9 105 53.9 10.2 1.7 44.2 2.9 58.5 1.9 38.9-2.6 73-14.3 103.8-35.7l7.7-5.4v30.9c0 39.7-1.5 57.8-6.2 75.3-9.6 36.3-29.9 60.1-62.1 72.9-14 5.6-40.6 10.1-59.1 10.1-35.3 0-74-18.7-110-52.9-5.1-4.9-10.3-9.2-11.5-9.6-5.9-1.8-7.6-.5-35.8 27.8-17.3 17.3-27.4 28.2-27.8 29.9-.4 1.5-.3 4 .2 5.5 2.4 7.1 55.3 48.7 75.3 59.2 38.5 20.1 83.3 29.3 128.3 26.3 38.5-2.6 67.3-9.6 94.2-22.7 66.9-32.8 103-96.2 108.5-190.5.6-10.8 1-109.2 1-258.3 0-260.1.3-244.9-4.9-247.7-1.3-.6-16.8-1-43.1-1h-41.2l-2.9 2.9c-2.9 2.9-2.9 3-2.9 15.5 0 6.9-.2 12.6-.5 12.6-.2 0-3.2-2-6.7-4.3-25.4-17.6-54.8-28.8-89.8-34.3-11.4-1.8-51.8-2.7-64-1.3zm67.9 94.4c44.8 6.5 73.9 25.6 89.8 59.1l3.6 7.6-.6 87.4-.6 87.3-3.7 7.3c-16.5 32.8-44.2 50.4-90.1 57.3-15.8 2.3-47.3 2.2-58.8-.3-36.8-7.9-66.1-33.5-80.8-70.7-14.8-37.3-17.9-97.8-7.3-144 6.1-26.4 19.1-50.8 34.4-64.6 17-15.3 33.8-22.5 63.2-27.2 7-1.2 41.1-.6 50.9.8zM2237.1 239.1c-27 2.9-59.3 13-82.9 26.1-66.7 37-111.8 107.8-119.3 187-1.5 16.7-.7 60.8 1.5 74 6 36.7 18.9 69.9 38.6 99.5 10.7 16.1 18.7 25.8 32.1 38.8 20.7 20.2 36.9 31.5 63.4 44.5 24.4 12 44.6 18.4 71 22.7 13.7 2.2 65.7 2.5 82.5.4 40-4.9 83.5-20.2 116.5-41 21.7-13.7 26.5-18.2 25-23.8-.9-3.6-55.2-59.1-58.6-59.8-3.5-.8-7.5.9-17.4 7.5-19.7 12.9-44.6 22.3-69 26.1-17.6 2.8-50.7 2.2-66-1.1-32.1-6.9-58.3-20.5-78-40.4-5.5-5.6-12.4-13.6-15.4-17.9-11.5-16.9-20.2-38.9-22.6-57.5l-.7-5.2h173.7c186.6 0 177.7.2 180.4-4.8 1.3-2.4 3.1-31.5 3.1-50.3 0-34.4-7.7-67.3-23.4-99.4-12.7-25.8-26.4-44.4-48.7-66-19.2-18.5-37-30.6-61.9-41.9-19.1-8.7-46-15.6-68-17.6-13.5-1.2-43.9-1.1-55.9.1zm51.4 82.4c28 4.5 50.4 16.2 71.9 37.2 18.9 18.6 29.4 41.2 32 68.5l.7 6.8h-255.9l2.3-9.8c6.1-25.7 17.9-46.6 37-65.7 25.9-26 54.5-38.2 90-38.4 7.2-.1 17.1.6 22 1.4z"/></svg>