<svg xmlns="http://www.w3.org/2000/svg" width="2730.667" height="2730.667" version="1.0" viewBox="0 0 2048 2048"><path d="M204 1.1c-13.6 1.4-33.5 5.7-47.8 10.4C71.1 39.5 9.8 116.3 1 205.9-.4 220.2-.4 1827.8 1 1842.1c5.3 54.1 29.9 104.8 69 142.2 37.5 36 84.2 57.5 135.9 62.7 14.3 1.4 1621.7 1.4 1636.2 0 45.2-4.5 89.3-22.9 124-51.8 45.9-38.4 75.5-94.5 80.9-153.7.7-7.3 1-284.7 1-821.6 0-702.6-.2-812-1.5-821.5-3.8-29.5-12.5-56.2-26.3-80.9C1984 52.3 1920.3 9.6 1846.5 1.1 1835.3-.2 216.8-.2 204 1.1zM478 285c65.1 5.1 121.4 43.6 149.5 102.3 38.4 80.1 13.7 176-58.6 228-11.7 8.4-34 19.6-48.1 24.2-20.3 6.5-30.5 8-55.8 8-19.8 0-23.9-.3-34-2.4-37.9-7.8-70-25.5-96.5-53.2-45.9-48.1-61.7-118.5-40.9-182.9 4.4-13.7 15.7-36 24.2-48 7.6-10.7 23.4-27.6 33.7-36 27.3-22.3 64.1-37.3 98.3-39.9 15.1-1.2 14.4-1.2 28.2-.1zm952 463c113.5 6.5 200 48.9 258.4 126.7 37.6 50.1 61.2 113 70.5 188.3 4.7 37.8 4.6 29 4.6 374v326.5l-151.7.3-151.8.2v-258.2c0-256-.4-287.7-3.5-313.9-6.4-54.5-23.1-95.7-50.1-123.8-19-19.9-42.8-32.9-71.3-39.1-29.3-6.4-71.1-4.9-101.1 3.5-65.6 18.4-107.9 70.8-121.5 150.3-5.1 29.7-4.8 15.6-5.2 308.5l-.4 272.7-146.2-.2-146.2-.3v-986l146.2-.3 146.3-.2.2 66.2.3 66.3 5.9-9c33.7-51.5 87.6-97.1 145.1-122.8 52.3-23.3 109.4-33.2 171.5-29.7zm-811 522.5V1764H314V777h305v493.5z"/></svg>