<svg xmlns="http://www.w3.org/2000/svg" width="1721.333" height="1404" version="1.0" viewBox="0 0 1291 1053"><path d="M1259.5 2.4c-3.8 1.3-12.6 5.1-19.5 8.4-21.9 10.6-30.8 12.8-58.9 14.2-49.3 2.6-73.6 7.5-100.6 20.5-31.6 15.2-58.5 39.2-85.7 76.5-11.2 15.4-23.6 35.1-44.8 71.6-28.6 48.8-39.6 66.1-55.4 86.8-28.7 37.8-55.7 59.7-102.6 83.5-42 21.3-75.9 34-170.5 64.1-27.5 8.7-59.2 19.1-70.5 23-11.3 4-31.5 11-45 15.6-49.6 17.1-60.3 22.2-88.5 42.2-33.7 23.9-57.2 47-79 77.7-14.2 20.1-23.4 31.3-37 45.3-10.6 10.8-12.7 12.5-17.9 14.3-13.4 4.6-32.3 3.7-79.5-4.1-50.1-8.3-67.8-9.9-84.9-8-13.9 1.5-21.6 4.1-30.5 10-6.8 4.6-19.7 16.9-19.7 18.9 0 .5 2.2 1.8 4.9 3 7.1 3 15.8 9.1 31.1 21.7 14.6 12 22.6 17.7 30.6 21.7 5.8 2.9 7.9 5.1 6.8 6.9-.5.7-7.2 9.9-15.1 20.4-22 29.6-28.6 41.9-26.9 50.9 1.2 6.2 3.7 7 22.1 6.9 35.5-.2 58.7-6.5 104.5-28.4 11.8-5.6 26.5-12.5 32.5-15.2 21.7-9.7 31.9-15.5 74-42.3 42.5-27.1 59.5-36.5 81-45.2 30.4-12.3 68.7-17.5 111.9-15.3 23.9 1.3 37.6 2.6 84.6 8.5 19.5 2.5 42.5 5.2 51 6 20.2 2.1 65.4 3 79.2 1.7 9.8-.9 11.2-1.3 15.4-4.4 4.6-3.3 11.4-11.5 16.1-19.5 3.4-5.9 8.1-17.3 14.8-35.9 8.7-24.1 15.3-37.4 18.7-37.4 1.5 0 .4 18.2-2.2 35.4-5 32.4-15.1 64.1-30.3 94.2-13.8 27.4-36.3 61.2-52.3 78.4-5.3 5.8-10.9 11.8-12.3 13.4l-2.6 2.9 13-.6c17.2-.8 29-3 45-8.3 65.6-21.5 112.2-60.7 151-126.8 7.8-13.2 18.8-36.5 27-56.8 3.8-9.4 7.4-16.9 8.3-17.3.8-.3 2.2.1 3 .9 1.2 1.2 1.3 3.5.3 16.3-.7 8.1-1.8 20.4-2.6 27.2-.8 6.9-1.3 12.7-1.1 12.9.6.5 19.1-9.5 26.1-14.2 40.5-27 76.5-79.8 102.8-151.1 16.4-44.7 28.1-87.6 45.7-168.1 17.9-81.8 23.1-99.2 34.3-114.2 10.8-14.7 26.6-28.5 56.1-49 31.5-22 43.6-32.4 54.6-47.2 14.2-19.2 20.3-39.6 20.4-68.5.1-17.1-1.1-21.3-7.4-24.7-4.9-2.6-14.6-2.3-23.5.6zM621.1 866.7c-11.7 5.8-11.5 26.1.2 31.6 5.4 2.6 15.6 2.3 19.7-.6 5.9-4 7.5-7.1 7.5-14.6 0-11.8-6.3-18.1-18.2-18.1-3.3 0-7.2.7-9.2 1.7zM46.6 868.8c-.5.8-46.6 179.9-46.6 180.9 0 .2 7.8.3 17.4.3h17.4l3.7-15.3c2-8.3 9.2-37.5 15.9-64.7l12.3-49.4 2 3.9c1.1 2.2 14.3 31.3 29.3 64.7l27.4 60.8h30.1l28.9-64.5c16-35.5 29.2-64.5 29.6-64.5.3 0 7.5 29 16 64.5l15.5 64.5h17.8c16.5 0 17.8-.1 17.3-1.8-.3-.9-10.7-41.1-23.1-89.2-12.4-48.1-22.8-88.3-23.1-89.3-.5-1.5-2.1-1.7-15.3-1.7-10.7 0-15.1.3-15.8 1.2-.5.7-14.8 32.2-31.8 70.1-16.9 37.8-31 68.6-31.2 68.3-.2-.2-14.5-31.6-31.7-69.7l-31.3-69.4-15.1-.3c-8.3-.1-15.3.2-15.6.6zM887.8 868.6c-.5.4-.8 41.4-.8 91.1v90.3h47c50.2 0 61-.7 74.9-4.6 30.4-8.6 50.6-28.2 59.8-58.1 2.5-8.3 2.7-10 2.7-28.3 0-18.4-.2-20-2.7-28.3-10.3-33.4-33.4-52.8-71.8-60.3-6.9-1.3-17.5-1.7-58.4-2.1-27.5-.3-50.3-.1-50.7.3zM995 886.9c29.4 7.5 47.3 27.5 52.1 58.2 1.4 9.1.6 27-1.6 35.9-.9 3.6-3.7 10.7-6.2 15.9-8.3 17.3-22.5 28.6-42.9 34.3-7.4 2-10.5 2.2-47.1 2.6l-39.3.3v-74.4c0-40.9.3-74.7.8-75.1.4-.5 17.6-.6 38.2-.3 34.2.4 38.2.6 46 2.6zM1108 959v91.1l60.8-.4c68.2-.4 69-.5 83.8-7.7 16.9-8.2 24.4-20.7 24.4-40.7 0-10.5-1.5-17.4-5.2-24.5-5.7-10.7-15.2-17.8-28.1-20.8l-6.9-1.6 4.9-1.1c20-4.7 29.3-16.8 29.3-38.3 0-25.3-12.4-39.2-40.3-44.6-6.8-1.4-18.1-1.7-65.4-2.1l-57.3-.5V959zm120.6-72.7c7.8 2.6 12.8 6.7 16 13.4 2.6 5.3 2.9 6.8 2.9 16.3 0 11.6-1 14.6-6.9 20.8-4 4.3-8.9 6.8-17.3 8.9-5.8 1.4-13.4 1.6-50.3 1.7l-43.5.1-.3-31.8-.2-31.8 47.2.3c41.3.3 47.9.6 52.4 2.1zm-5.2 78.1c14.7 2.9 24.5 10.1 28.3 20.9 2.7 7.8 2.4 21.6-.5 28.2-4.4 9.7-12.9 16-25.4 19-5.1 1.2-15.2 1.5-51.5 1.5H1129v-71h43.4c33.7 0 45.1.3 51 1.4zM347.5 915c-22.9 3.7-40.3 15.6-49.4 34-5.7 11.7-7.4 20.5-6.8 35.5.8 20.2 7.1 35.1 20.3 48.2 13.1 13 30.7 19.5 52.4 19.6 17.4 0 28.7-3.4 40.7-12.4 2.8-2.1 6-5.2 6.9-6.9 1-1.6 2.2-3 2.6-3 .4 0 .8 4.5.8 10v10h34V917h-34v10c0 5.5-.1 10-.3 10-.2 0-3-2.7-6.3-5.9-7.1-6.8-17.2-12.1-28-14.5-9.1-2-25.1-2.8-32.9-1.6zm41.4 26.9c17.1 6.9 26 19.9 26.9 39.2.6 14.4-2.8 24.7-11.4 33.9-10.2 10.9-27.5 15.4-44.2 11.5-12.7-3-21.9-10.2-27.6-21.6-13.3-26.6-.7-58.2 26-64.8 6.8-1.7 24.2-.7 30.3 1.8zM563.4 915.4c-13.5 3.1-25.8 12-33.2 23.9l-3.7 6.1-.3-14.2-.3-14.2H492v133h34v-34.5c0-21.2.4-36.4 1.1-39.7 1.9-9 6.3-16.9 12.8-23.2 10.1-9.6 22.4-13.4 37.2-11.5 4 .5 8.1 1.1 9.1 1.4 1.7.6 1.6.9 7.2-18.4.9-2.9 1.4-5.7 1.1-6.1-1.8-2.9-22.4-4.6-31.1-2.6zM733.5 915c-23 3.7-40.3 15.6-49.4 34.1-5.6 11.5-7.5 21.3-6.8 35.9.9 19.8 7.1 34.4 20.4 47.7 5.7 5.7 9 8.1 16.5 11.7 12.2 5.8 21.3 7.8 35.8 7.8 19.9.1 34-5.1 45.2-16.5l5.8-5.9v20.2h34V917h-34v20.2l-6.7-6.2c-11.1-10.4-25-15.5-44.9-16.4-5.5-.3-12.6-.1-15.9.4zm41.1 26.7c11.3 4.4 20.2 13.1 24.6 24 1.9 5 2.3 7.6 2.3 18.3 0 12-.1 12.8-3.2 19.2-9.2 19.5-29.7 28.6-52.2 23.3-16.8-4-28-15.9-31.8-33.9-2.3-11.2-.1-25.4 5.5-34.6 4.8-7.9 15.5-15.6 25-18 6.2-1.6 24-.6 29.8 1.7zM614.2 974.2c.4 64.7.2 63.3 8.2 71.3 5.2 5.2 11.2 7 22.6 6.8 7.3-.1 19.2-2.2 20.6-3.6.3-.2-.7-5.7-2.1-12.1-1.4-6.5-2.5-11.9-2.5-12.2 0-.2-2.2-.4-4.9-.4-8.5 0-8.1 3-8.1-55.7V917h-34.1l.3 57.2z"/></svg>