<svg xmlns="http://www.w3.org/2000/svg" width="656" height="649.333" version="1.0" viewBox="0 0 492 487"><path d="M244 1.8c0 4.8-5.4 12.2-16.3 22.4-21.7 20.3-40.8 49.6-52.3 80-6.7 17.9-7.7 21.3-10.8 38.3-7 37.5-5.3 67.9 5.5 99.2 11.1 32.3 32.2 62.4 60.4 86.3 6.8 5.8 8.7 8 9.5 11.2 2.3 8.2 4 20.6 4 28.3 0 4.4.4 8.5.8 9.2.6 1 8.2 4.3 9.8 4.3.2 0 .1-4.6-.2-10.3-.8-12.8.9-29.4 3.6-34.6 1-2.1 4.8-6.1 8.2-8.9 12.6-10.1 27-26.1 36.1-40.2 31.5-48.7 38-108 18.2-165.8-12.1-35.5-27-59.8-53.6-87.8-9.2-9.7-11.5-12.8-16.3-22.3C247.5 5 244.7 0 244.5 0c-.3 0-.5.8-.5 1.8zM342.7 381.6c-.4.4-.7 1.6-.7 2.6 0 1.3.7 1.8 2.5 1.8 4.5 0 8.4 2.7 9 6.3.3 1.7.5 14.7.3 28.8-.3 28.4-.5 29-6.9 30.3-2.3.4-2.9 1.1-2.9 3.2v2.6l22.3-.4c19.7-.4 22.9-.7 28.2-2.7 11.9-4.3 19.1-11 23.1-21.6 2.9-7.5 2.6-24-.4-31.7-2.9-7.1-8.7-13.2-16-16.6-5.6-2.7-6-2.7-31.7-3-14.3-.2-26.4 0-26.8.4zm42.5 6.4c8.2 2.5 14.7 8.1 18.5 15.8 2.5 5.1 2.8 6.8 2.8 15.7 0 11.3-1.6 16.1-7.6 23-8.1 9.2-23.1 11.3-30.6 4.3-2.3-2.1-2.3-2.4-2.3-30.4 0-25.9.1-28.4 1.8-29.3 2.8-1.7 10.5-1.3 17.4.9zM428 383.4c0 2.2.5 2.6 2.9 2.6 1.6 0 3.9.9 5.2 1.9l2.4 1.9-.3 28.9c-.3 31.1-.6 32.3-5.8 32.3-2.5 0-5.4 2.4-5.4 4.6 0 1.2 3.1 1.4 18.5 1.4 19.2 0 26.3-.9 33-4.2 7.9-4 11.8-9 13-16.9 1.3-9-2.3-16.2-10-19.8-2.5-1.2-4.5-2.5-4.5-2.9 0-.4 1.3-1.5 2.9-2.5 4.2-2.5 6.4-7.8 5.9-14.4-.5-6.1-2.8-9.8-7.9-12.8-3.1-1.8-5.5-2-26.6-2.3l-23.3-.3v2.5zm37.6 5.1c9.5 3.9 10.8 17.2 2.2 22.5-2.6 1.6-4.7 2-10.3 1.8l-7-.3-.3-11.4c-.3-14 .6-15.7 7.8-14.6 2.5.4 5.9 1.3 7.6 2zm2.9 32.4c16.7 7.5 11.8 30.1-6.4 30.1-9.9 0-12.1-3.6-12.1-19.8 0-6 .3-11.2.7-11.5 1.4-1.5 13.9-.6 17.8 1.2zM63.4 405.9c-1.6.4-5.3 2-8.2 3.6l-5.1 2.8-3.6-3.2c-3.1-2.7-4.3-3.1-9.4-3.1-4.6 0-7.1.7-11.6 3-3.1 1.6-5.9 3-6.1 3-.2 0-.4-1.4-.4-3 0-3.4-.2-3.5-7.9-1.6-3.1.8-6.8 1.7-8.3 2-4 .9-3.4 2.9 1.5 5.1l4.2 2 .3 15.4c.3 16.7-.1 18.2-5.4 19.5-1.5.4-2.4 1.4-2.4 2.6 0 1.9.7 2 12.4 2 10.4 0 12.5-.3 13-1.6.8-2.2.9-2.1-2.1-2.9-5.2-1.3-5.3-1.7-5.3-17.5v-14.8l3-2.6c6.3-5.3 13.5-4.4 17.3 2.1 2.2 3.8 3.3 19 2 26.3-.7 3.8-1.4 4.7-4.1 5.9-4.6 2.1-4.1 4.1 1.1 4.1 2.3 0 7.9.3 12.5.7 7.8.6 8.2.5 8.2-1.5 0-1.3-.9-2.3-2.2-2.8-5.5-1.6-5.8-2.6-5.8-18.5v-14.7l3.3-2c5.4-3.3 8.8-3.6 12.7-1 5.5 3.7 6 5.7 5.8 20.8l-.3 13.5-3.2 1.4c-2 .9-3.3 2.2-3.3 3.3 0 1.6 1.1 1.8 12.6 1.8 12.4 0 12.5 0 12.2-2.3-.2-1.4-1.1-2.3-2.4-2.5-4.6-.7-5.2-2.7-5.6-19.7-.3-14.5-.5-16.3-2.6-19.6-3.1-5-10.2-7.6-16.8-6zM120.9 406c-9.4 1.6-16.9 7.5-19.4 15.1-4 11.8-.2 26.5 8.3 32.4 4.1 2.8 4.9 3 14 3 11 0 15.6-1.7 20.9-7.9 4.1-4.6 5.7-9.7 5.8-18.1 0-15-6.8-23.2-20.5-24.8-2.5-.3-6.6-.1-9.1.3zm8.2 6.5c6.9 3.6 11.8 15.4 10.4 25.4-1.3 9.2-7.2 14.9-14.2 13.6-4.6-.8-10.6-7-12.7-13-2.1-6.3-2.1-15.7.1-20.2 3-6.5 10.2-9 16.4-5.8zM185.4 408c-7.2 3.6-7.4 3.6-7.4.5 0-3-.8-3.1-11-.6-5.9 1.4-7.6 2.2-7.8 3.7-.2 1.5.6 2.3 3.3 3.2 1.9.8 3.9 2.1 4.4 3 .5 1 .7 8.4.4 16.6l-.6 14.8-3.4 1.4c-2.5 1.1-3.3 2-3.3 3.9v2.5h11.8c6.4 0 12.3-.4 13-.9 2-1.2 1-4.6-1.5-4.9-4.8-.7-5.4-2.8-5.1-18.3l.3-14.3 3.4-2.3c5.2-3.5 10.5-3.1 14.7 1.1l3.4 3.4v14c0 14.5-.3 15.6-4.5 16.4-1.3.2-2.1 1.3-2.3 3.1l-.3 2.7h11.5c6.3 0 12.1-.3 13-.6 2.3-.9 2.1-5.4-.2-5.4-1 0-2.7-.7-3.9-1.5-1.9-1.4-2.1-2.5-2.5-17.2-.5-18.9-1.8-22.9-8.8-25.7-5.9-2.3-9.9-2-16.6 1.4zM301.3 406c-9.5 2-17.3 8.4-19.4 16.2-.6 2.4-.9 7.7-.7 11.8.9 15.3 8.7 23 23 23 11.1 0 17.8-3.1 23-10.5 5.8-8.2 5.8-23.8 0-31.9-4.8-7-15.9-10.6-25.9-8.6zm10 7.5c7.6 5.2 11.5 19.1 8 29-4.7 13-18 12-24.8-2-5-10.1-3.2-23.3 3.7-27.5 4.4-2.7 8.6-2.5 13.1.5zM236 408.7c-7.4 3.8-9.4 6.8-9.8 15.1-.4 7.9 1.6 12.6 6.5 15.7 1.8 1.1 3.2 2.3 3.3 2.7 0 .3-1.6 1.6-3.5 2.8-4.6 2.9-4.8 6.8-.5 10.2l3.1 2.4-4.7 3.4c-5.5 4.2-6.4 5.7-6.4 10.7 0 9.2 7.8 14.6 21 14.7 16 0 29-10.3 29-22.9 0-5.7-2-9.7-5.6-11.4-1.6-.7-7.9-1.8-14.2-2.6-6.3-.7-11.9-1.8-12.5-2.4-2.1-2.1.7-4.4 6.6-5.8 12.8-2.9 17.7-8.6 17.7-20.4 0-4.7.1-4.9 2.9-4.9 3.8 0 6.1-2.3 6.1-6.1 0-2.9-2.2-4.1-3.5-1.9-.9 1.5-7.6 1.2-12.5-.5-7.1-2.5-16.7-2-23 1.2zm14.7 3.9c3.8 2.4 5.6 7.1 5.1 13.2-.4 4.7-1 6-3.7 8.4-3.7 3.3-5.5 3.5-9.7.9-6.1-3.7-8.6-14.6-4.7-20 3.8-5 7.8-5.8 13-2.5zm7.3 47.6c9.4 3.5 9.2 13.6-.4 18.2-4.2 2-11.5 2.1-15.9.2-3.9-1.6-8.7-7-8.7-9.7 0-2.5 6.5-9.7 9.3-10.2 2.9-.6 12.6.3 15.7 1.5z"/></svg>