<svg xmlns="http://www.w3.org/2000/svg" width="640" height="478.667" version="1.0" viewBox="0 0 480 359"><path d="M248.3 7.3C236 11.2 226 14.7 226 15c0 .7 45.6 13 47.9 13 2.6 0 48.1-12.3 48.1-13 0-1-46.2-15-49-14.9-1.4.1-12.5 3.3-24.7 7.2zM389.8 7.3C377.2 11.2 367 14.7 367 15c0 .3 10.8 3.4 24 7l24 6.3 24-6.3c13.2-3.5 24-6.6 24-7 0-.9-45.9-15-48.5-14.9-1.1 0-12.2 3.2-24.7 7.2zM213 62.9v40l27.4 9c15.1 5 27.7 9.1 28 9.1.4 0 .6-18.5.6-41 0-22.6-.2-41-.5-41s-12.1-3.4-26.3-7.6c-14.1-4.1-26.5-7.7-27.4-8-1.7-.5-1.8 1.8-1.8 39.5zM315 29.6c-11.8 3.5-23.9 7.1-26.7 7.9l-5.3 1.6v41c0 32.5.3 41 1.3 40.7.6-.3 13-4.4 27.5-9.2l26.2-8.8V62.9c0-21.9-.3-39.9-.7-39.8-.5 0-10.5 3-22.3 6.5zM354 63v39.9l26.6 8.6c14.7 4.8 27.3 8.9 28 9.2 1.2.4 1.4-6 1.4-40.5V39.1l-5.7-1.6c-3.2-.9-15.6-4.6-27.5-8.1-12-3.5-22-6.4-22.3-6.4-.3 0-.5 18-.5 40zM454.5 30.1c-12.6 3.8-24.7 7.4-26.7 7.9l-3.8 1.1v41c0 32.5.3 41 1.3 40.7.6-.3 13-4.4 27.5-9.2l26.2-8.8V80.2c0-12.5.3-30.5.7-40 .5-14.4.4-17.2-.8-17.1-.8.1-11.7 3.2-24.4 7zM38.3 124.8c-13.3 4.2-23.7 8-23 8.3.7.4 11.6 3.5 24.4 6.9l23.2 6.2 23.8-6.2c13.1-3.5 24.1-6.6 24.5-6.9.6-.5-16.2-6-47.5-15.5-.6-.3-12.1 3-25.4 7.2zM179 125l-24.4 7.7 5.4 1.6c3 .9 14.2 3.9 24.7 6.7l19.2 5.2 23.8-6.2c13.1-3.5 24.1-6.6 24.5-6.9.6-.5-29.6-10.4-47.6-15.6-.6-.2-12.1 3.2-25.6 7.5zM.2 182.3l.3 40.1 26.5 8.8c14.6 4.8 27.1 8.7 27.8 8.7.9.1 1.2-8.7 1.2-40.7v-40.7l-23.8-6.9c-13-3.9-25.6-7.5-28-8.2L0 142.1l.2 40.2zM97.8 150.5l-27.8 8V240.8l27.3-9c14.9-5 27.5-9.4 28-9.7.4-.4.6-18.5.5-40.2l-.3-39.5-27.7 8.1zM240.8 150.4l-27.8 8.1v40.8c0 35.5.2 40.8 1.5 40.5.8-.2 13.1-4.1 27.3-8.8l25.9-8.5.7-28c.4-15.4.6-33.4.4-40.1l-.3-12.1-27.7 8.1zM142 182.8v39.7l26.1 8.5c14.4 4.7 26.8 8.6 27.5 8.8 1.2.3 1.4-6.3 1.4-40.5v-40.9l-26.7-7.7c-14.8-4.3-27.1-7.8-27.5-7.7-.5 0-.8 17.9-.8 39.8zM110.5 241.9c-11.6 3.7-22.6 7.1-24.5 7.7-3.2.9-1.6 1.4 21.6 7.7l25 6.7 24.3-6.5c13.4-3.5 24.5-6.6 24.7-6.8.4-.3-48.6-15.8-49.6-15.6-.3 0-9.9 3.1-21.5 6.8zM332.6 241.2c-24.5 2.4-39.1 20.7-33.2 41.2 2 6.7 8.2 13.6 15 16.7 2.3 1 12.8 4.1 23.2 6.9 10.4 2.8 20.2 5.9 21.8 6.8 5.1 3 7.1 6.7 7.1 13.1-.1 7.2-3.1 11.7-10.2 15.2-6.9 3.3-21.4 3.3-29.1-.1-8.1-3.5-14.2-12-14.2-19.9 0-2-.5-2.1-9.5-2.1H294v3.3c0 8.6 5.1 19 12.9 26 5.2 4.7 8.7 6.4 17.8 8.8 19.8 5 42.5.2 52.8-11.3 5.9-6.5 8-12 8-21.3 0-9.5-2.2-15.2-8.2-21.2-5.3-5.3-10.1-7.3-30.1-12.6-19.4-5.2-22.7-6.5-26.8-10.8-2.5-2.6-2.9-3.8-2.8-8.3 0-6.6 2-9.8 7.7-12.8 6-3.2 20.2-3.2 26.8-.2 5.7 2.6 9.9 8 10.6 13.4l.6 4h19.9l-.7-3.8c-1.3-7.3-2.8-11.1-6.4-15.8-8.7-11.6-24.6-17.1-43.5-15.2zM427.8 244c-14.4 2.5-26.7 15.8-28.5 30.9l-.6 5.1h17l.7-4.8c.8-6.3 5.3-13.4 9.9-15.5 4-1.9 12.2-2.2 16.4-.6 7.5 2.8 11.3 10.5 9.3 18.9-1.8 7.7-8 12.1-18.8 13.6l-5.2.7V305h6.4c14.6 0 22.6 6.8 22.6 19.2 0 13.1-9.3 20.6-24.4 19.6-5.4-.3-7.2-.9-10.2-3.4-4.6-3.7-7.5-9-8.2-15l-.5-4.4h-17l.6 5.9c1 11.7 8.4 22.9 18 27.5 21.3 10.3 50.8.7 57.2-18.5 2.4-7.2 2.2-17.5-.6-23.8-2-4.7-9.6-13.1-11.8-13.1-.5 0-2.2-.5-3.8-1.1l-2.8-1.1 4.7-2.4c7.3-3.7 11.8-11.8 11.8-21.3 0-14.6-10.8-25.9-27.4-29-6.6-1.2-8-1.2-14.8-.1zM70 299.8v40l27.3 9.1c14.9 5 27.5 9.1 28 9.1.4 0 .7-18.4.7-40.8v-40.8l-26.7-7.8c-14.8-4.3-27.4-8.1-28-8.3-1-.4-1.3 7.9-1.3 39.5zM185 263.6c-6.3 1.9-18.6 5.5-27.2 8l-15.8 4.7v40.9c0 32.4.3 40.9 1.3 40.6.6-.3 13-4.4 27.5-9.2l26.2-8.8v-39.9c0-21.9-.1-39.9-.2-39.8-.2 0-5.5 1.6-11.8 3.5z"/></svg>