<svg xmlns="http://www.w3.org/2000/svg" width="1104" height="1104" version="1.0" viewBox="0 0 828 828"><path d="M803 1.2c-2.8.7-18.7 16.2-75 72.4L656.5 145l-5.5-4.1c-21.3-16-51.2-27.7-79-31-14.3-1.6-39.5-.6-52.4 2.1-21.5 4.6-41.3 12.9-60.6 25.7-10.6 7-15.4 11.5-58.8 54.7l-47.2 47 21.2 21.3 21.3 21.3 29-28.9c26.9-26.7 29.4-29 35-31.1 4.8-1.8 7.5-2.1 13.6-1.8 9.4.5 15.6 3.4 22.1 10 6.6 6.8 9.1 13.9 8.6 24.3-.7 12.7-1.8 14.2-33.7 46l-28.1 28 28.7 28.7 28.8 28.8 28.5-28.4c18.3-18.2 30.1-29.2 33-30.7 3.8-2 6-2.4 14-2.4 11.1 0 16.7 2.1 23.5 9 9 8.9 11.9 23 7.5 35-2.1 5.6-4.4 8.1-31.1 35l-28.9 29 21.3 21.3 21.2 21.2 45.1-45.2c24.8-24.9 46.9-47.6 49.1-50.3 15.6-19.3 27.6-45 33.3-71.5 2.7-12.5 3.7-37.8 2.1-52-3.3-27.8-15-57.7-31-79l-4.1-5.5 71.3-71.5c61.6-61.7 71.5-72.1 72.5-75.6 1.6-5.6 1.5-8.2-.7-12.9C821.9 2.3 813-1.6 803 1.2zM359 324.9c-8.3 2.7-12.7 6.5-44.3 37.9L282 395.5l-21.3-21.3-21.2-21.2-46.1 46.2c-52.3 52.5-57 58.1-68.3 81.8-5.9 12.3-10.3 25.4-13.1 38.8-2.7 12.7-3.7 38-2.1 52.2 3.3 27.7 15.1 57.8 31 79l4.1 5.5L73.6 728C-1.6 803.3 0 801.5 0 810c0 3.4 3.2 10 6.1 12.7 2.9 2.6 9 5.3 12 5.3 8.2 0 7 1.1 81.9-73.7l71.6-71.3 5.4 4.1c17.9 13.4 41.6 23.8 65.6 28.9 19.8 4.2 49.5 3.7 69.9-1 24.1-5.6 48.7-17.5 67-32.3 2.8-2.2 25.4-24.3 50.3-49.1l45.2-45.1-21.2-21.2-21.3-21.3 32.7-32.7c37.9-38.1 38.3-38.6 38.3-53.3 0-7.3-.4-9.2-2.8-13.8-3.5-6.6-8.8-12-15.2-15.2-4.2-2.1-6.4-2.5-13.5-2.5-15 0-13.9-.8-52.3 37.4L386 499.5l-28.7-28.8-28.8-28.7 33.1-33.2c38.1-38.4 37.9-38.1 37.9-52.3 0-7.9-.4-9.7-2.8-14.2-5.9-11.3-15.4-17.4-27.7-17.9-4.1-.2-8.6 0-10 .5z"/></svg>