<svg xmlns="http://www.w3.org/2000/svg" width="624" height="637.333" version="1.0" viewBox="0 0 468 478"><path d="M201.5 2.6C153.8 6.3 122.7 16 114 29.7l-3 4.7v103.8c0 87.2.2 104.4 1.4 107.2 7.2 17.2 42.6 28 101.9 31.2l12.7.6v20.5l-4 1.8c-4.7 2.1-9.9 7.6-11.9 12.3l-1.3 3.2h-98.5l-6.1 3.1c-6.5 3.2-9.9 6.6-13.5 13.3-1.9 3.5-2.2 6.1-2.5 18.3l-.4 14.3H53.1c-35.5 0-35.8 0-40.2 2.3-2.4 1.3-5.7 4.3-7.4 6.6l-3 4.3v85.6l3 4.3c1.7 2.3 5 5.3 7.4 6.6l4.4 2.3h83.9c73.4 0 84.3-.2 87.6-1.5 4.7-2 7.8-5 10.5-10 2.1-3.9 2.2-4.9 2.2-44.5v-40.5L199 375c-1.4-2.4-4.5-5.8-6.8-7.5l-4.4-3-41.9-.3-41.9-.3v-11.5c0-12.4.7-15 5.5-19.4l2.7-2.5 48.7-.3 48.8-.3 1.1 2.7c6.2 13.4 22.3 18.8 35.1 11.9 5.2-2.8 10.3-8.4 11.6-12.6.6-1.8 2.4-1.9 48.3-1.9 44.3 0 48 .1 51.1 1.8 5.8 3.1 7.1 6.9 7.1 20.4v11.7l-41.9.3-41.9.3-4.4 3c-2.3 1.7-5.4 5.1-6.8 7.5l-2.5 4.5V420c0 39.6.1 40.6 2.2 44.5 2.7 5 5.8 8 10.5 10 3.3 1.3 14.2 1.5 87.6 1.5h83.9l4.4-2.3c2.4-1.3 5.8-4.3 7.4-6.6l3-4.3.3-41.7.3-41.7-2.4-4.4c-1.3-2.5-4.3-5.9-6.6-7.5l-4.3-3-36.6-.5-36.7-.5-.5-14c-.4-12-.8-14.6-2.8-18.2-3.3-6.3-7.4-10.6-12.9-13.3l-4.8-2.5-50.2-.3-50.1-.3-1-2.8c-1.4-4-6.9-9.9-11.4-12.2L242 298v-21h3.3c1.7 0 10-.5 18.2-1 58.3-3.9 89.8-15.8 93.6-35.1 1.3-6.9 1.1-198.8-.2-205-3.3-15.3-27.2-25.9-71.1-31.5-11.8-1.5-71.6-2.8-84.3-1.8zm-57 66.7c39.2 12.3 119.1 13.8 167.5 3.1 9.4-2.1 20-5.7 29.8-10.1 1-.4 1.2 6.9 1 38.2l-.3 38.7-3.8 3.4c-6.9 5.9-26.1 11.7-49.7 14.8-54.5 7.4-123.7 2.6-152.1-10.5-11.7-5.4-10.9-2.1-10.9-46.5V62.1l5.3 2.3c2.8 1.3 8.8 3.5 13.2 4.9zm-1 96c24.5 7.7 61.8 11.5 102.5 10.3 41.8-1.1 70.9-5.9 89.8-14.6 4.7-2.2 6.4-2.6 6.8-1.6.3.7.4 19.1.2 40.9l-.3 39.5-2.3 2.5c-7.1 7.5-32.7 14.5-64.7 17.7-59.5 5.8-132.4-2.8-147-17.4l-2.5-2.5V158l4.8 2.4c2.6 1.3 8.3 3.5 12.7 4.9zM43 402.2c1.8 2 2 3.5 2 17.8s-.2 15.8-2 17.8c-2.8 3-8.2 3-11 0-1.8-2-2-3.5-2-17.8s.2-15.8 2-17.8c1.4-1.4 3.3-2.2 5.5-2.2s4.1.8 5.5 2.2zm32-.2c1.8 1.8 2 3.3 2 17.8 0 18.4-.6 20.2-7 20.2-3 0-4.3-.6-5.9-2.6-1.9-2.4-2.1-4-2.1-17.4 0-13.4.2-15 2.1-17.4 2.6-3.3 7.9-3.6 10.9-.6zm32.6.1c1.7 1.9 1.9 3.8 1.9 17.9 0 14.1-.2 16-1.9 17.9-2.3 2.6-8.1 2.8-10.8.4-1.6-1.4-1.8-3.4-1.8-18.1 0-14 .3-16.8 1.7-18.4 2.3-2.6 8.4-2.4 10.9.3zm200.3.5c1.9 2.4 2.1 4 2.1 17.4 0 13.4-.2 15-2.1 17.4-2.6 3.3-7.9 3.6-10.9.6-1.8-1.8-2-3.3-2-18s.2-16.2 2-18c3-3 8.3-2.7 10.9.6zm32.1-.4c1.8 2 2 3.5 2 18s-.2 16-2 17.8c-2.7 2.7-8.3 2.7-11-.2-1.8-2-2-3.5-2-17.4 0-13.8.2-15.4 2.1-17.8 2.7-3.4 7.9-3.6 10.9-.4zm32-.2c1.8 1.8 2 3.3 2 17.8 0 18.4-.6 20.2-6.9 20.2-2.6 0-4.4-.7-5.7-2.1-1.7-1.9-1.9-3.8-1.9-17.9 0-14.1.2-16 1.9-17.9 2.5-2.7 7.9-2.8 10.6-.1zm-213.2 4.7c4.8 3.6 6.6 7 6.6 12.3 0 11.3-12.7 18.8-22.2 13-10-6.1-9.5-20.9.8-26.3 4.3-2.2 11.1-1.8 14.8 1zm263.2-.9c10.3 5.1 10.8 20.1.8 26.2-6.2 3.8-14 2.1-19.1-3.9-3.2-3.9-4.1-7.9-2.8-12.8 2.5-9.1 12.7-13.7 21.1-9.5z"/><path d="M305 105.1c-3.9 1.6-5.9 3.9-7 8-2.1 7.7 3.6 14.9 11.7 14.9 3.8 0 5-.5 7.9-3.4 1.9-1.9 3.4-4.5 3.5-5.8.4-7.2-1.4-10.8-6.6-13.2-3.7-1.8-5.9-1.9-9.5-.5zM143.3 108c-4.6 1.9-5.6 7.5-2 11.4 1.7 2 4.6 3 13.7 5 15.3 3.3 32.6 5.6 48.6 6.3 12.5.6 13.2.5 15.3-1.6 2.2-2.2 2.7-6.1 1.1-9.1-1.4-2.6-6-3.7-18.5-4.5-15.5-.8-32.3-3.1-44.3-6-11.5-2.8-10.9-2.7-13.9-1.5zM261.4 108.6c-4 1.9-6.4 6.2-6.4 11.4 0 3.4.6 4.8 3.4 7.6s4.2 3.4 7.5 3.4c5.7 0 9.5-2.2 11.6-6.6 2.9-6.2.3-13.3-6.1-16-4.2-1.8-6.1-1.7-10 .2zM302.3 206.4c-6.5 5.5-6.2 14.7.6 19.3 3.9 2.7 8 2.9 12.1.8 4.2-2.2 6-5.3 6-10.7 0-6.8-3.7-10.9-10.6-11.5-4.3-.5-5.4-.2-8.1 2.1zM141.1 209.5c-4.4 5.7-1.8 10.4 6.9 12.8 12.6 3.5 36.7 7 57 8.3 9.8.6 10.7.5 13.3-1.6 2-1.6 2.7-3 2.7-5.5 0-6.1-2.2-6.8-24.6-8.8-10.9-1-25.5-2.9-32.4-4.4-19.2-3.9-20.3-4-22.9-.8zM260.3 209c-3.9 2.4-5.3 4.8-5.3 9.5 0 7.9 5.8 13.2 13.3 12.2 7.3-1 12-8.3 9.7-15.2-2.5-7.6-10.8-10.7-17.7-6.5z"/></svg>