<svg xmlns="http://www.w3.org/2000/svg" width="742.667" height="742.667" version="1.0" viewBox="0 0 557 557"><path d="M257 .7C217.6 4.4 184.1 13.8 152.6 30 71.4 71.5 16.8 147.4 2.9 238.1.2 255.5-.4 293.7 1.8 311c6.6 52.3 27.3 101.4 59.8 142 9.6 11.9 31 33.2 43.1 42.8 95.2 75.3 227.2 81.1 327.5 14.3 22.9-15.3 40.1-30.4 56.8-49.9 35.6-41.4 57.2-89 65.1-143.2 3.2-21.9 3.2-57 0-78-4.7-30.9-12.5-55.9-26.1-83.5-15-30.4-31.2-52.7-55.6-76.5C426.9 34.6 370.7 8.3 307 1.5 295.1.2 266.7-.3 257 .7zM317 163v65h22.4c12.4 0 22.7.3 22.9.7.6 1.2-87.9 117.9-88.9 117.3-1.1-.5-87.5-115-88.1-116.7-.4-1 4.3-1.3 22.1-1.3H230v-64.3c0-35.4.3-64.7.7-65 .3-.4 19.9-.7 43.5-.7H317v65zM197 379.1V390h153v-21.9l19.1-.3c10.5-.2 19.3-.1 19.5.1.2.2.4 9.6.4 20.8V409H158v-41l18.8-.2c10.3-.2 19-.2 19.5 0 .4.2.7 5.2.7 11.3z"/></svg>