<svg xmlns="http://www.w3.org/2000/svg" width="1365.333" height="1332" version="1.0" viewBox="0 0 1024 999"><path d="M481.5.6c-2.2.2-9.8.9-17 1.4-60.2 5-126.2 23.8-182.7 52.1-73 36.6-139.7 93.7-187.3 160.4-44.9 62.8-75.3 136-88 211.5-5.4 32.3-6 39.9-6 82.5 0 43 1 57.2 6.1 87.5 12.1 72.2 38.9 140.4 78.5 199.7 20.4 30.5 36.8 50.3 65.4 78.8 31 31.1 58.1 52.5 93.7 74.4C280 971 337 996.5 354.7 998.5c12.5 1.5 23.2-3.5 27.7-12.8l2.7-5.5-.1-50.8c0-27.9-.2-50.9-.4-51.1-.2-.2-6.6.6-14.2 1.8-19.4 3-55.3 3.7-71.5 1.5-27.7-3.9-48.7-13.4-64.5-29.3-10.4-10.6-13.4-15.5-24.2-39.8-13.1-29.4-36.3-60.1-51.1-67.7-9.6-4.9-21.4-16-22.8-21.6-1.3-5.2 3.7-8.9 13.8-10.4 20-2.8 39.7 3.4 58.3 18.4 10.9 8.8 19.1 18.3 30.9 35.8 11.5 16.9 25.5 31.4 37.6 38.8 20.4 12.4 44.6 16.7 71.5 12.7 9.2-1.4 35.5-9.3 38.1-11.5.7-.6 1.5-3.4 1.9-6.3.9-8.3 6.3-25 10.8-34 5.2-10.4 8.8-15.8 15.6-22.9 6.3-6.6 7.4-5.8-10.8-8.3-68.1-9.5-116.6-29.9-151.8-63.9-39.5-38.1-59.5-88.4-64.3-161.7-3-45.2 2.6-79 18.6-112.5 7.3-15.4 14.1-26.3 24.9-39.8l7.8-9.9-2.6-8.6c-10.6-35.1-9.6-74.4 3-113.1 5.1-15.5 4.9-15.4 19.3-14.7 13.9.7 22.6 2.5 38.5 7.8 22.2 7.5 48.6 20.7 75.9 38 6 3.8 11.5 6.9 12.2 6.9.8 0 6.9-1.4 13.7-3 37.1-9.1 72.3-13.3 113.3-13.3 43.8-.1 74 3.5 115.3 13.5 10.1 2.4 13.7 3 15 2.1 22-14 32.5-20.1 46.6-27.4 32.3-16.5 54.3-23.5 77.1-24.6 11.5-.5 13.3-.4 14.8 1.1 2.1 2.2 8.9 23.3 11.5 36.2 6.4 31.1 5.2 65.6-3.3 90.4-1.4 4-2.5 7.7-2.5 8 0 .4 3 4.3 6.6 8.6 18.4 22.1 31.9 48.5 38.9 75.9 5.4 21.2 6.8 35.8 6.2 65-.8 38.9-5.6 69-15.7 98-4.6 13.2-15.8 35.5-23.8 47.5-34.7 51.8-95 83-181.7 94-4.9.6-9.6 1.3-10.4 1.6-.9.3.4 2.3 4.2 6.2 12.3 13 20.5 29.9 25.8 53.7 2.2 9.8 2.3 11.5 2.8 97.5l.6 87.5 2.7 4.6c1.5 2.5 4.4 5.7 6.5 7.1 9.9 6.7 19.2 6.4 40.3-1.5 38.3-14.4 70.6-30.9 104.7-53.6 118.3-78.6 198.7-202 222.2-341.1 5.5-32.9 6.6-46.3 6.5-83 0-33.8-.8-46.8-4.5-74-10.9-79.1-41.3-156.9-87.1-222.4-56.5-80.9-138-145.8-228.2-181.8-45.2-18-90-29.1-138.8-34.4C551.4.9 491.3-.4 481.5.6z"/></svg>