<svg xmlns="http://www.w3.org/2000/svg" width="349.333" height="613.333" version="1.0" viewBox="0 0 262 460"><path d="M.5 1.2C.2 1.9.1 105.3.2 231l.3 228.5 28.9.3c19.5.1 29.3-.1 30-.8.7-.7 1.3-18 1.6-52.2l.5-51 13.1-12.4L87.7 331l48.9 62.3c26.9 34.2 50 63.2 51.3 64.4 2.4 2.3 2.4 2.3 38.2 2.3H262v-10.1l-64.8-80.4c-35.6-44.3-64.8-80.9-65-81.3-.1-.4 27.9-28 62.3-61.2 62.5-60.5 62.5-60.5 62.5-64.5 0-2.3-.5-4.6-1.2-5.3-1.6-1.6-69.9-1.7-73.1-.1-1.2.6-29.1 28.2-61.9 61.2l-59.7 60.2V141.2C61 48.5 60.7 3.2 60 1.9 59 .1 57.6 0 29.9 0 7.7 0 .8.3.5 1.2z"/></svg>